<svg width="183" height="53" viewBox="0 0 183 53" fill="none" xmlns="http://www.w3.org/2000/svg">
<path d="M181.414 6.69098L182.996 8.45835H181.758L180.898 7.49433C180.248 8.25942 179.369 8.64197 178.26 8.64197C177.511 8.64197 176.915 8.42009 176.471 7.97634C176.02 7.54024 175.795 7.00467 175.795 6.36964C175.795 5.83407 175.94 5.38267 176.231 5.01542C176.529 4.64818 177.018 4.27328 177.699 3.89073C177.347 3.49288 177.095 3.14094 176.942 2.8349C176.796 2.52887 176.724 2.219 176.724 1.90531C176.724 1.408 176.907 0.979549 177.274 0.619955C177.634 0.275662 178.119 0.103516 178.731 0.103516C179.273 0.103516 179.744 0.26036 180.141 0.574049C180.531 0.887738 180.726 1.32002 180.726 1.87088C180.726 2.68188 180.168 3.40872 179.052 4.0514L180.749 5.94501C180.902 5.50126 180.978 5.02307 180.978 4.51046H181.907C181.884 5.32911 181.72 6.05595 181.414 6.69098ZM178.719 0.929818C178.413 0.929818 178.165 1.02163 177.974 1.20525C177.783 1.38122 177.687 1.61458 177.687 1.90531C177.687 2.31081 177.962 2.82343 178.513 3.44315C178.948 3.20597 179.266 2.96497 179.464 2.72014C179.663 2.47531 179.763 2.2037 179.763 1.90531C179.763 1.62223 179.663 1.38887 179.464 1.20525C179.266 1.02163 179.017 0.929818 178.719 0.929818ZM178.318 7.76976C179.166 7.76976 179.824 7.44842 180.29 6.80574L178.237 4.49898C177.71 4.78207 177.332 5.0575 177.102 5.32529C176.881 5.59307 176.77 5.92589 176.77 6.32373C176.77 6.72923 176.911 7.07353 177.194 7.35661C177.477 7.63205 177.851 7.76976 178.318 7.76976Z" fill="#1C1C1C"/>
<path d="M181.414 6.69098L182.996 8.45835H181.758L180.898 7.49433C180.248 8.25942 179.369 8.64197 178.26 8.64197C177.511 8.64197 176.915 8.42009 176.471 7.97634C176.02 7.54024 175.795 7.00467 175.795 6.36964C175.795 5.83407 175.94 5.38267 176.231 5.01542C176.529 4.64818 177.018 4.27328 177.699 3.89073C177.347 3.49288 177.095 3.14094 176.942 2.8349C176.796 2.52887 176.724 2.219 176.724 1.90531C176.724 1.408 176.907 0.979549 177.274 0.619955C177.634 0.275662 178.119 0.103516 178.731 0.103516C179.273 0.103516 179.744 0.26036 180.141 0.574049C180.531 0.887738 180.726 1.32002 180.726 1.87088C180.726 2.68188 180.168 3.40872 179.052 4.0514L180.749 5.94501C180.902 5.50126 180.978 5.02307 180.978 4.51046H181.907C181.884 5.32911 181.72 6.05595 181.414 6.69098ZM178.719 0.929818C178.413 0.929818 178.165 1.02163 177.974 1.20525C177.783 1.38122 177.687 1.61458 177.687 1.90531C177.687 2.31081 177.962 2.82343 178.513 3.44315C178.948 3.20597 179.266 2.96497 179.464 2.72014C179.663 2.47531 179.763 2.2037 179.763 1.90531C179.763 1.62223 179.663 1.38887 179.464 1.20525C179.266 1.02163 179.017 0.929818 178.719 0.929818ZM178.318 7.76976C179.166 7.76976 179.824 7.44842 180.29 6.80574L178.237 4.49898C177.71 4.78207 177.332 5.0575 177.102 5.32529C176.881 5.59307 176.77 5.92589 176.77 6.32373C176.77 6.72923 176.911 7.07353 177.194 7.35661C177.477 7.63205 177.851 7.76976 178.318 7.76976Z" fill="black" fill-opacity="0.2"/>
<path d="M166.945 0.287109H173.493V1.15932H170.718V8.45832H169.72V1.15932H166.945V0.287109Z" fill="#1C1C1C"/>
<path d="M166.945 0.287109H173.493V1.15932H170.718V8.45832H169.72V1.15932H166.945V0.287109Z" fill="black" fill-opacity="0.2"/>
<path d="M166.846 6.09418L166.926 7.41396C166.964 7.87302 167.063 8.22114 167.224 8.45832H166.226C166.058 8.21349 165.97 7.85007 165.963 7.36806L165.928 6.49585C165.905 5.94498 165.783 5.55478 165.561 5.32526C165.34 5.08808 164.976 4.96949 164.472 4.96949H161.811V8.45832H160.848V0.287109H164.3C165.141 0.287109 165.81 0.482208 166.307 0.872407C166.811 1.2626 167.063 1.80965 167.063 2.51353C167.063 3.01085 166.941 3.43165 166.697 3.77594C166.46 4.11258 166.135 4.34976 165.722 4.48748C166.41 4.7017 166.784 5.23727 166.846 6.09418ZM161.811 4.09728H164.415C164.927 4.09728 165.328 3.96721 165.619 3.70708C165.917 3.4393 166.066 3.06058 166.066 2.57092C166.066 2.10421 165.909 1.75227 165.596 1.51509C165.29 1.27791 164.858 1.15932 164.3 1.15932H161.811V4.09728Z" fill="#1C1C1C"/>
<path d="M166.846 6.09418L166.926 7.41396C166.964 7.87302 167.063 8.22114 167.224 8.45832H166.226C166.058 8.21349 165.97 7.85007 165.963 7.36806L165.928 6.49585C165.905 5.94498 165.783 5.55478 165.561 5.32526C165.34 5.08808 164.976 4.96949 164.472 4.96949H161.811V8.45832H160.848V0.287109H164.3C165.141 0.287109 165.81 0.482208 166.307 0.872407C166.811 1.2626 167.063 1.80965 167.063 2.51353C167.063 3.01085 166.941 3.43165 166.697 3.77594C166.46 4.11258 166.135 4.34976 165.722 4.48748C166.41 4.7017 166.784 5.23727 166.846 6.09418ZM161.811 4.09728H164.415C164.927 4.09728 165.328 3.96721 165.619 3.70708C165.917 3.4393 166.066 3.06058 166.066 2.57092C166.066 2.10421 165.909 1.75227 165.596 1.51509C165.29 1.27791 164.858 1.15932 164.3 1.15932H161.811V4.09728Z" fill="black" fill-opacity="0.2"/>
<path d="M160.046 0.287109V1.15932H155.333V3.76446H159.587V4.63667H155.333V7.58611H160V8.45832H154.37V0.287109H160.046Z" fill="#1C1C1C"/>
<path d="M160.046 0.287109V1.15932H155.333V3.76446H159.587V4.63667H155.333V7.58611H160V8.45832H154.37V0.287109H160.046Z" fill="black" fill-opacity="0.2"/>
<path d="M149.515 0.287109V7.58611H153.62V8.45832H148.551V0.287109H149.515Z" fill="#1C1C1C"/>
<path d="M149.515 0.287109V7.58611H153.62V8.45832H148.551V0.287109H149.515Z" fill="black" fill-opacity="0.2"/>
<path d="M148.084 8.45832H147.063L146.112 6.0827H142.396L141.456 8.45832H140.447L143.704 0.287109H144.781L148.084 8.45832ZM142.775 5.11868L142.74 5.21049H145.768L145.722 5.1072C145.531 4.6405 145.034 3.38192 144.231 1.33146C143.688 2.78514 143.203 4.04755 142.775 5.11868Z" fill="#1C1C1C"/>
<path d="M148.084 8.45832H147.063L146.112 6.0827H142.396L141.456 8.45832H140.447L143.704 0.287109H144.781L148.084 8.45832ZM142.775 5.11868L142.74 5.21049H145.768L145.722 5.1072C145.531 4.6405 145.034 3.38192 144.231 1.33146C143.688 2.78514 143.203 4.04755 142.775 5.11868Z" fill="black" fill-opacity="0.2"/>
<path d="M136.849 3.04145V0.287109H137.801V8.45832H136.631L133.925 4.24647C133.145 3.00702 132.58 2.08508 132.228 1.48066C132.251 2.55179 132.262 3.95956 132.262 5.70398V8.45832H131.311V0.287109H132.48L135.187 4.49895C135.966 5.73841 136.532 6.66035 136.884 7.26477C136.861 6.19364 136.849 4.78586 136.849 3.04145Z" fill="#1C1C1C"/>
<path d="M136.849 3.04145V0.287109H137.801V8.45832H136.631L133.925 4.24647C133.145 3.00702 132.58 2.08508 132.228 1.48066C132.251 2.55179 132.262 3.95956 132.262 5.70398V8.45832H131.311V0.287109H132.48L135.187 4.49895C135.966 5.73841 136.532 6.66035 136.884 7.26477C136.861 6.19364 136.849 4.78586 136.849 3.04145Z" fill="black" fill-opacity="0.2"/>
<path d="M129.327 7.4599C128.608 8.24795 127.66 8.64197 126.483 8.64197C125.306 8.64197 124.362 8.24795 123.651 7.4599C122.932 6.68715 122.573 5.6581 122.573 4.37274C122.573 3.09504 122.932 2.06216 123.651 1.27411C124.362 0.493714 125.306 0.103516 126.483 0.103516C127.66 0.103516 128.608 0.493714 129.327 1.27411C130.038 2.06981 130.394 3.10269 130.394 4.37274C130.394 5.65045 130.038 6.6795 129.327 7.4599ZM124.373 6.84017C124.901 7.45225 125.604 7.75829 126.483 7.75829C127.362 7.75829 128.066 7.45225 128.593 6.84017C129.121 6.23575 129.384 5.41327 129.384 4.37274C129.384 3.33222 129.121 2.50974 128.593 1.90531C128.066 1.29324 127.362 0.9872 126.483 0.9872C125.604 0.9872 124.901 1.29324 124.373 1.90531C123.846 2.50974 123.582 3.33222 123.582 4.37274C123.582 5.41327 123.846 6.23575 124.373 6.84017Z" fill="#1C1C1C"/>
<path d="M129.327 7.4599C128.608 8.24795 127.66 8.64197 126.483 8.64197C125.306 8.64197 124.362 8.24795 123.651 7.4599C122.932 6.68715 122.573 5.6581 122.573 4.37274C122.573 3.09504 122.932 2.06216 123.651 1.27411C124.362 0.493714 125.306 0.103516 126.483 0.103516C127.66 0.103516 128.608 0.493714 129.327 1.27411C130.038 2.06981 130.394 3.10269 130.394 4.37274C130.394 5.65045 130.038 6.6795 129.327 7.4599ZM124.373 6.84017C124.901 7.45225 125.604 7.75829 126.483 7.75829C127.362 7.75829 128.066 7.45225 128.593 6.84017C129.121 6.23575 129.384 5.41327 129.384 4.37274C129.384 3.33222 129.121 2.50974 128.593 1.90531C128.066 1.29324 127.362 0.9872 126.483 0.9872C125.604 0.9872 124.901 1.29324 124.373 1.90531C123.846 2.50974 123.582 3.33222 123.582 4.37274C123.582 5.41327 123.846 6.23575 124.373 6.84017Z" fill="black" fill-opacity="0.2"/>
<path d="M121.657 8.45832H120.694V0.287109H121.657V8.45832Z" fill="#1C1C1C"/>
<path d="M121.657 8.45832H120.694V0.287109H121.657V8.45832Z" fill="black" fill-opacity="0.2"/>
<path d="M113.509 0.287109H120.057V1.15932H117.282V8.45832H116.284V1.15932H113.509V0.287109Z" fill="#1C1C1C"/>
<path d="M113.509 0.287109H120.057V1.15932H117.282V8.45832H116.284V1.15932H113.509V0.287109Z" fill="black" fill-opacity="0.2"/>
<path d="M114.991 8.45832H113.97L113.018 6.0827H109.303L108.363 8.45832H107.354L110.61 0.287109H111.688L114.991 8.45832ZM109.681 5.11868L109.647 5.21049H112.674L112.629 5.1072C112.437 4.6405 111.94 3.38192 111.138 1.33146C110.595 2.78514 110.11 4.04755 109.681 5.11868Z" fill="#1C1C1C"/>
<path d="M114.991 8.45832H113.97L113.018 6.0827H109.303L108.363 8.45832H107.354L110.61 0.287109H111.688L114.991 8.45832ZM109.681 5.11868L109.647 5.21049H112.674L112.629 5.1072C112.437 4.6405 111.94 3.38192 111.138 1.33146C110.595 2.78514 110.11 4.04755 109.681 5.11868Z" fill="black" fill-opacity="0.2"/>
<path d="M104.003 8.64197C102.895 8.64197 101.989 8.2556 101.285 7.48285C100.582 6.71011 100.23 5.6734 100.23 4.37274C100.23 3.07208 100.582 2.03538 101.285 1.26263C101.989 0.489888 102.895 0.103516 104.003 0.103516C104.882 0.103516 105.632 0.344521 106.251 0.82653C106.87 1.30089 107.279 1.99712 107.478 2.91524H106.503C106.159 1.62988 105.326 0.9872 104.003 0.9872C103.17 0.9872 102.501 1.28559 101.996 1.88236C101.492 2.48679 101.24 3.31691 101.24 4.37274C101.24 5.42857 101.492 6.25488 101.996 6.85165C102.501 7.45607 103.17 7.75829 104.003 7.75829C104.63 7.75829 105.188 7.56319 105.677 7.17299C106.159 6.79809 106.453 6.23575 106.56 5.48596H107.524C107.417 6.50353 107.031 7.2801 106.366 7.81567C105.693 8.36654 104.905 8.64197 104.003 8.64197Z" fill="#1C1C1C"/>
<path d="M104.003 8.64197C102.895 8.64197 101.989 8.2556 101.285 7.48285C100.582 6.71011 100.23 5.6734 100.23 4.37274C100.23 3.07208 100.582 2.03538 101.285 1.26263C101.989 0.489888 102.895 0.103516 104.003 0.103516C104.882 0.103516 105.632 0.344521 106.251 0.82653C106.87 1.30089 107.279 1.99712 107.478 2.91524H106.503C106.159 1.62988 105.326 0.9872 104.003 0.9872C103.17 0.9872 102.501 1.28559 101.996 1.88236C101.492 2.48679 101.24 3.31691 101.24 4.37274C101.24 5.42857 101.492 6.25488 101.996 6.85165C102.501 7.45607 103.17 7.75829 104.003 7.75829C104.63 7.75829 105.188 7.56319 105.677 7.17299C106.159 6.79809 106.453 6.23575 106.56 5.48596H107.524C107.417 6.50353 107.031 7.2801 106.366 7.81567C105.693 8.36654 104.905 8.64197 104.003 8.64197Z" fill="black" fill-opacity="0.2"/>
<path d="M99.3148 8.45832H98.3516V0.287109H99.3148V8.45832Z" fill="#1C1C1C"/>
<path d="M99.3148 8.45832H98.3516V0.287109H99.3148V8.45832Z" fill="black" fill-opacity="0.2"/>
<path d="M90.6748 0.287109H93.427C94.6655 0.287109 95.644 0.646704 96.3626 1.36589C97.0736 2.08508 97.4291 3.08735 97.4291 4.37271C97.4291 5.64277 97.0736 6.64122 96.3626 7.36806C95.6364 8.0949 94.6578 8.45832 93.427 8.45832H90.6748V0.287109ZM91.6381 7.58611H93.427C94.3902 7.58611 95.128 7.30303 95.6402 6.73686C96.1601 6.17069 96.42 5.38264 96.42 4.37271C96.42 3.36279 96.1601 2.57474 95.6402 2.00857C95.128 1.4424 94.3902 1.15932 93.427 1.15932H91.6381V7.58611Z" fill="#1C1C1C"/>
<path d="M90.6748 0.287109H93.427C94.6655 0.287109 95.644 0.646704 96.3626 1.36589C97.0736 2.08508 97.4291 3.08735 97.4291 4.37271C97.4291 5.64277 97.0736 6.64122 96.3626 7.36806C95.6364 8.0949 94.6578 8.45832 93.427 8.45832H90.6748V0.287109ZM91.6381 7.58611H93.427C94.3902 7.58611 95.128 7.30303 95.6402 6.73686C96.1601 6.17069 96.42 5.38264 96.42 4.37271C96.42 3.36279 96.1601 2.57474 95.6402 2.00857C95.128 1.4424 94.3902 1.15932 93.427 1.15932H91.6381V7.58611Z" fill="black" fill-opacity="0.2"/>
<path d="M89.8722 0.287109V1.15932H85.1591V3.76446H89.4135V4.63667H85.1591V7.58611H89.8263V8.45832H84.1958V0.287109H89.8722Z" fill="#1C1C1C"/>
<path d="M89.8722 0.287109V1.15932H85.1591V3.76446H89.4135V4.63667H85.1591V7.58611H89.8263V8.45832H84.1958V0.287109H89.8722Z" fill="black" fill-opacity="0.2"/>
<path d="M79.8513 4.79734L81.6746 0.287109H82.9361V8.45832H81.9957V5.8417C81.9957 4.12023 82.0072 2.73159 82.0301 1.67576C81.8467 2.18072 81.6058 2.80044 81.3077 3.53494L79.2894 8.45832H78.4638L76.434 3.53494C76.1359 2.80044 75.8951 2.18072 75.7116 1.67576C75.7345 2.73159 75.746 4.12023 75.746 5.8417V8.45832H74.8057V0.287109H76.0671L77.9592 4.93506C78.2421 5.63129 78.5517 6.41552 78.8881 7.28772C79.3544 6.04827 79.6755 5.21814 79.8513 4.79734Z" fill="#1C1C1C"/>
<path d="M79.8513 4.79734L81.6746 0.287109H82.9361V8.45832H81.9957V5.8417C81.9957 4.12023 82.0072 2.73159 82.0301 1.67576C81.8467 2.18072 81.6058 2.80044 81.3077 3.53494L79.2894 8.45832H78.4638L76.434 3.53494C76.1359 2.80044 75.8951 2.18072 75.7116 1.67576C75.7345 2.73159 75.746 4.12023 75.746 5.8417V8.45832H74.8057V0.287109H76.0671L77.9592 4.93506C78.2421 5.63129 78.5517 6.41552 78.8881 7.28772C79.3544 6.04827 79.6755 5.21814 79.8513 4.79734Z" fill="black" fill-opacity="0.2"/>
<path d="M176.007 11.811H183V12.7425H180.036V20.5371H178.971V12.7425H176.007V11.811Z" fill="#1C1C1C"/>
<path d="M176.007 11.811H183V12.7425H180.036V20.5371H178.971V12.7425H176.007V11.811Z" fill="black" fill-opacity="0.2"/>
<path d="M174.311 14.7524V11.811H175.327V20.5371H174.078L171.188 16.0393C170.355 14.7156 169.751 13.7311 169.376 13.0856C169.4 14.2295 169.412 15.7329 169.412 17.5957V20.5371H168.396V11.811H169.645L172.535 16.3089C173.368 17.6325 173.972 18.6171 174.348 19.2625C174.323 18.1187 174.311 16.6153 174.311 14.7524Z" fill="#1C1C1C"/>
<path d="M174.311 14.7524V11.811H175.327V20.5371H174.078L171.188 16.0393C170.355 14.7156 169.751 13.7311 169.376 13.0856C169.4 14.2295 169.412 15.7329 169.412 17.5957V20.5371H168.396V11.811H169.645L172.535 16.3089C173.368 17.6325 173.972 18.6171 174.348 19.2625C174.323 18.1187 174.311 16.6153 174.311 14.7524Z" fill="black" fill-opacity="0.2"/>
<path d="M167.539 11.811V12.7425H162.506V15.5245H167.049V16.456H162.506V19.6057H167.49V20.5371H161.477V11.811H167.539Z" fill="#1C1C1C"/>
<path d="M167.539 11.811V12.7425H162.506V15.5245H167.049V16.456H162.506V19.6057H167.49V20.5371H161.477V11.811H167.539Z" fill="black" fill-opacity="0.2"/>
<path d="M156.838 16.6275L158.785 11.811H160.132V20.5371H159.128V17.7428C159.128 15.9045 159.14 14.4215 159.164 13.294C158.968 13.8332 158.711 14.495 158.393 15.2794L156.237 20.5371H155.356L153.188 15.2794C152.87 14.495 152.613 13.8332 152.417 13.294C152.441 14.4215 152.453 15.9045 152.453 17.7428V20.5371H151.449V11.811H152.796L154.817 16.7746C155.119 17.5181 155.45 18.3556 155.809 19.287C156.307 17.9634 156.65 17.0769 156.838 16.6275Z" fill="#1C1C1C"/>
<path d="M156.838 16.6275L158.785 11.811H160.132V20.5371H159.128V17.7428C159.128 15.9045 159.14 14.4215 159.164 13.294C158.968 13.8332 158.711 14.495 158.393 15.2794L156.237 20.5371H155.356L153.188 15.2794C152.87 14.495 152.613 13.8332 152.417 13.294C152.441 14.4215 152.453 15.9045 152.453 17.7428V20.5371H151.449V11.811H152.796L154.817 16.7746C155.119 17.5181 155.45 18.3556 155.809 19.287C156.307 17.9634 156.65 17.0769 156.838 16.6275Z" fill="black" fill-opacity="0.2"/>
<path d="M150.593 11.811V12.7425H145.559V15.5245H150.103V16.456H145.559V19.6057H150.544V20.5371H144.531V11.811H150.593Z" fill="#1C1C1C"/>
<path d="M150.593 11.811V12.7425H145.559V15.5245H150.103V16.456H145.559V19.6057H150.544V20.5371H144.531V11.811H150.593Z" fill="black" fill-opacity="0.2"/>
<path d="M139.595 16.9828V16.0513H143.305V20.5369H142.46L142.24 19.3604C141.595 20.2755 140.644 20.733 139.387 20.733C138.138 20.733 137.142 20.3122 136.399 19.4707C135.639 18.6373 135.26 17.5384 135.26 16.1739C135.26 14.8176 135.635 13.7146 136.386 12.8648C137.129 12.0314 138.134 11.6147 139.399 11.6147C140.436 11.6147 141.293 11.8925 141.971 12.4481C142.648 13.0037 143.061 13.7432 143.208 14.6664H142.142C142.036 14.021 141.726 13.5062 141.211 13.1222C140.713 12.7464 140.109 12.5584 139.399 12.5584C138.468 12.5584 137.725 12.8853 137.17 13.5389C136.615 14.1925 136.337 15.0709 136.337 16.1739C136.337 17.2769 136.615 18.1552 137.17 18.8089C137.725 19.4625 138.468 19.7893 139.399 19.7893C140.224 19.7893 140.926 19.5238 141.505 18.9927C142.085 18.4616 142.375 17.7916 142.375 16.9828H139.595Z" fill="#1C1C1C"/>
<path d="M139.595 16.9828V16.0513H143.305V20.5369H142.46L142.24 19.3604C141.595 20.2755 140.644 20.733 139.387 20.733C138.138 20.733 137.142 20.3122 136.399 19.4707C135.639 18.6373 135.26 17.5384 135.26 16.1739C135.26 14.8176 135.635 13.7146 136.386 12.8648C137.129 12.0314 138.134 11.6147 139.399 11.6147C140.436 11.6147 141.293 11.8925 141.971 12.4481C142.648 13.0037 143.061 13.7432 143.208 14.6664H142.142C142.036 14.021 141.726 13.5062 141.211 13.1222C140.713 12.7464 140.109 12.5584 139.399 12.5584C138.468 12.5584 137.725 12.8853 137.17 13.5389C136.615 14.1925 136.337 15.0709 136.337 16.1739C136.337 17.2769 136.615 18.1552 137.17 18.8089C137.725 19.4625 138.468 19.7893 139.399 19.7893C140.224 19.7893 140.926 19.5238 141.505 18.9927C142.085 18.4616 142.375 17.7916 142.375 16.9828H139.595Z" fill="black" fill-opacity="0.2"/>
<path d="M135.618 20.5371H134.528L133.512 18.0002H129.544L128.54 20.5371H127.462L130.94 11.811H132.091L135.618 20.5371ZM129.948 16.9707L129.912 17.0687H133.145L133.096 16.9584C132.892 16.46 132.361 15.116 131.504 12.9263C130.924 14.4787 130.406 15.8268 129.948 16.9707Z" fill="#1C1C1C"/>
<path d="M135.618 20.5371H134.528L133.512 18.0002H129.544L128.54 20.5371H127.462L130.94 11.811H132.091L135.618 20.5371ZM129.948 16.9707L129.912 17.0687H133.145L133.096 16.9584C132.892 16.46 132.361 15.116 131.504 12.9263C130.924 14.4787 130.406 15.8268 129.948 16.9707Z" fill="black" fill-opacity="0.2"/>
<path d="M125.947 14.7524V11.811H126.963V20.5371H125.714L122.824 16.0393C121.991 14.7156 121.387 13.7311 121.011 13.0856C121.036 14.2295 121.048 15.7329 121.048 17.5957V20.5371H120.032V11.811H121.281L124.171 16.3089C125.004 17.6325 125.608 18.6171 125.983 19.2625C125.959 18.1187 125.947 16.6153 125.947 14.7524Z" fill="#1C1C1C"/>
<path d="M125.947 14.7524V11.811H126.963V20.5371H125.714L122.824 16.0393C121.991 14.7156 121.387 13.7311 121.011 13.0856C121.036 14.2295 121.048 15.7329 121.048 17.5957V20.5371H120.032V11.811H121.281L124.171 16.3089C125.004 17.6325 125.608 18.6171 125.983 19.2625C125.959 18.1187 125.947 16.6153 125.947 14.7524Z" fill="black" fill-opacity="0.2"/>
<path d="M119.533 20.5371H118.443L117.427 18.0002H113.459L112.455 20.5371H111.377L114.855 11.811H116.006L119.533 20.5371ZM113.863 16.9707L113.826 17.0687H117.059L117.01 16.9584C116.806 16.46 116.275 15.116 115.418 12.9263C114.839 14.4787 114.32 15.8268 113.863 16.9707Z" fill="#1C1C1C"/>
<path d="M119.533 20.5371H118.443L117.427 18.0002H113.459L112.455 20.5371H111.377L114.855 11.811H116.006L119.533 20.5371ZM113.863 16.9707L113.826 17.0687H117.059L117.01 16.9584C116.806 16.46 116.275 15.116 115.418 12.9263C114.839 14.4787 114.32 15.8268 113.863 16.9707Z" fill="black" fill-opacity="0.2"/>
<path d="M107.588 16.6275L109.536 11.811H110.883V20.5371H109.879V17.7428C109.879 15.9045 109.891 14.4215 109.915 13.294C109.719 13.8332 109.462 14.495 109.144 15.2794L106.988 20.5371H106.107L103.939 15.2794C103.621 14.495 103.364 13.8332 103.168 13.294C103.192 14.4215 103.204 15.9045 103.204 17.7428V20.5371H102.2V11.811H103.547L105.568 16.7746C105.87 17.5181 106.201 18.3556 106.56 19.287C107.058 17.9634 107.401 17.0769 107.588 16.6275Z" fill="#1C1C1C"/>
<path d="M107.588 16.6275L109.536 11.811H110.883V20.5371H109.879V17.7428C109.879 15.9045 109.891 14.4215 109.915 13.294C109.719 13.8332 109.462 14.495 109.144 15.2794L106.988 20.5371H106.107L103.939 15.2794C103.621 14.495 103.364 13.8332 103.168 13.294C103.192 14.4215 103.204 15.9045 103.204 17.7428V20.5371H102.2V11.811H103.547L105.568 16.7746C105.87 17.5181 106.201 18.3556 106.56 19.287C107.058 17.9634 107.401 17.0769 107.588 16.6275Z" fill="black" fill-opacity="0.2"/>
<path d="M98.0185 11.811H99.3778L95.655 15.3652L99.3778 20.5371H98.1165L94.908 16.0515L93.2547 17.6325V20.5371H92.2261V11.811H93.2547V16.3947L98.0185 11.811Z" fill="#1C1C1C"/>
<path d="M98.0185 11.811H99.3778L95.655 15.3652L99.3778 20.5371H98.1165L94.908 16.0515L93.2547 17.6325V20.5371H92.2261V11.811H93.2547V16.3947L98.0185 11.811Z" fill="black" fill-opacity="0.2"/>
<path d="M88.097 20.733C86.9622 20.733 86.0764 20.4756 85.4396 19.9609C84.8028 19.4462 84.4803 18.6781 84.4722 17.6568H85.5376C85.5621 19.0867 86.4152 19.8016 88.097 19.8016C88.8073 19.8016 89.3502 19.6627 89.7258 19.3849C90.1095 19.1071 90.3013 18.7027 90.3013 18.1716C90.3013 17.7549 90.1421 17.4321 89.8237 17.2034C89.5135 16.9664 88.9665 16.7622 88.1827 16.5906L87.4112 16.419C86.5295 16.2147 85.8682 15.9206 85.4274 15.5366C84.9865 15.1444 84.7661 14.597 84.7661 13.8943C84.7661 13.1998 85.0355 12.6483 85.5743 12.2398C86.1132 11.8231 86.8357 11.6147 87.7419 11.6147C88.3542 11.6147 88.8849 11.6883 89.3339 11.8353C89.7911 11.9824 90.1462 12.1908 90.3993 12.4604C90.6524 12.7218 90.8361 13.0078 90.9504 13.3183C91.0728 13.6288 91.1381 13.9719 91.1463 14.3478H90.0931C90.0442 13.7268 89.8401 13.2734 89.4808 12.9874C89.1298 12.6933 88.5501 12.5462 87.7419 12.5462C87.1296 12.5462 86.6561 12.6647 86.3213 12.9016C85.9948 13.1385 85.8315 13.4694 85.8315 13.8943C85.8315 14.3192 85.9744 14.6501 86.2601 14.887C86.5377 15.124 87.0765 15.3323 87.8766 15.5121L88.6481 15.6837C89.6115 15.8961 90.3054 16.2025 90.7299 16.6028C91.1545 16.995 91.3667 17.5179 91.3667 18.1716C91.3667 18.9641 91.0769 19.5891 90.4973 20.0467C89.9176 20.5042 89.1175 20.733 88.097 20.733Z" fill="#1C1C1C"/>
<path d="M88.097 20.733C86.9622 20.733 86.0764 20.4756 85.4396 19.9609C84.8028 19.4462 84.4803 18.6781 84.4722 17.6568H85.5376C85.5621 19.0867 86.4152 19.8016 88.097 19.8016C88.8073 19.8016 89.3502 19.6627 89.7258 19.3849C90.1095 19.1071 90.3013 18.7027 90.3013 18.1716C90.3013 17.7549 90.1421 17.4321 89.8237 17.2034C89.5135 16.9664 88.9665 16.7622 88.1827 16.5906L87.4112 16.419C86.5295 16.2147 85.8682 15.9206 85.4274 15.5366C84.9865 15.1444 84.7661 14.597 84.7661 13.8943C84.7661 13.1998 85.0355 12.6483 85.5743 12.2398C86.1132 11.8231 86.8357 11.6147 87.7419 11.6147C88.3542 11.6147 88.8849 11.6883 89.3339 11.8353C89.7911 11.9824 90.1462 12.1908 90.3993 12.4604C90.6524 12.7218 90.8361 13.0078 90.9504 13.3183C91.0728 13.6288 91.1381 13.9719 91.1463 14.3478H90.0931C90.0442 13.7268 89.8401 13.2734 89.4808 12.9874C89.1298 12.6933 88.5501 12.5462 87.7419 12.5462C87.1296 12.5462 86.6561 12.6647 86.3213 12.9016C85.9948 13.1385 85.8315 13.4694 85.8315 13.8943C85.8315 14.3192 85.9744 14.6501 86.2601 14.887C86.5377 15.124 87.0765 15.3323 87.8766 15.5121L88.6481 15.6837C89.6115 15.8961 90.3054 16.2025 90.7299 16.6028C91.1545 16.995 91.3667 17.5179 91.3667 18.1716C91.3667 18.9641 91.0769 19.5891 90.4973 20.0467C89.9176 20.5042 89.1175 20.733 88.097 20.733Z" fill="black" fill-opacity="0.2"/>
<path d="M83.555 20.5371H82.5264V11.811H83.555V20.5371Z" fill="#1C1C1C"/>
<path d="M83.555 20.5371H82.5264V11.811H83.555V20.5371Z" fill="black" fill-opacity="0.2"/>
<path d="M81.2592 18.0124L81.3449 19.4218C81.3858 19.9121 81.4919 20.2838 81.6633 20.5371H80.5979C80.4183 20.2757 80.3244 19.8876 80.3163 19.3728L80.2795 18.4414C80.255 17.8531 80.1244 17.4364 79.8877 17.1913C79.6509 16.938 79.2631 16.8114 78.7243 16.8114H75.8832V20.5371H74.8545V11.811H78.5406C79.4386 11.811 80.153 12.0194 80.6837 12.4361C81.2225 12.8528 81.4919 13.437 81.4919 14.1886C81.4919 14.7197 81.3613 15.1691 81.1 15.5368C80.8469 15.8963 80.5 16.1496 80.0591 16.2966C80.7939 16.5254 81.1939 17.0973 81.2592 18.0124ZM75.8832 15.8799H78.663C79.21 15.8799 79.6387 15.741 79.9489 15.4632C80.2673 15.1773 80.4265 14.7728 80.4265 14.2499C80.4265 13.7515 80.2591 13.3757 79.9244 13.1224C79.5978 12.8691 79.1366 12.7425 78.5406 12.7425H75.8832V15.8799Z" fill="#1C1C1C"/>
<path d="M81.2592 18.0124L81.3449 19.4218C81.3858 19.9121 81.4919 20.2838 81.6633 20.5371H80.5979C80.4183 20.2757 80.3244 19.8876 80.3163 19.3728L80.2795 18.4414C80.255 17.8531 80.1244 17.4364 79.8877 17.1913C79.6509 16.938 79.2631 16.8114 78.7243 16.8114H75.8832V20.5371H74.8545V11.811H78.5406C79.4386 11.811 80.153 12.0194 80.6837 12.4361C81.2225 12.8528 81.4919 13.437 81.4919 14.1886C81.4919 14.7197 81.3613 15.1691 81.1 15.5368C80.8469 15.8963 80.5 16.1496 80.0591 16.2966C80.7939 16.5254 81.1939 17.0973 81.2592 18.0124ZM75.8832 15.8799H78.663C79.21 15.8799 79.6387 15.741 79.9489 15.4632C80.2673 15.1773 80.4265 14.7728 80.4265 14.2499C80.4265 13.7515 80.2591 13.3757 79.9244 13.1224C79.5978 12.8691 79.1366 12.7425 78.5406 12.7425H75.8832V15.8799Z" fill="black" fill-opacity="0.2"/>
<path d="M165.051 29.6557L165.131 30.9755C165.169 31.4345 165.269 31.7827 165.429 32.0198H164.431C164.263 31.775 164.175 31.4116 164.168 30.9296L164.133 30.0574C164.11 29.5065 163.988 29.1163 163.766 28.8868C163.545 28.6496 163.181 28.531 162.677 28.531H160.016V32.0198H159.053V23.8486H162.505C163.346 23.8486 164.015 24.0437 164.512 24.4339C165.016 24.8241 165.269 25.3712 165.269 26.0751C165.269 26.5724 165.146 26.9932 164.902 27.3375C164.665 27.6741 164.34 27.9113 163.927 28.049C164.615 28.2632 164.99 28.7988 165.051 29.6557ZM160.016 27.6588H162.62C163.132 27.6588 163.533 27.5287 163.824 27.2686C164.122 27.0008 164.271 26.6221 164.271 26.1324C164.271 25.6657 164.114 25.3138 163.801 25.0766C163.495 24.8394 163.063 24.7208 162.505 24.7208H160.016V27.6588Z" fill="#1C1C1C"/>
<path d="M165.051 29.6557L165.131 30.9755C165.169 31.4345 165.269 31.7827 165.429 32.0198H164.431C164.263 31.775 164.175 31.4116 164.168 30.9296L164.133 30.0574C164.11 29.5065 163.988 29.1163 163.766 28.8868C163.545 28.6496 163.181 28.531 162.677 28.531H160.016V32.0198H159.053V23.8486H162.505C163.346 23.8486 164.015 24.0437 164.512 24.4339C165.016 24.8241 165.269 25.3712 165.269 26.0751C165.269 26.5724 165.146 26.9932 164.902 27.3375C164.665 27.6741 164.34 27.9113 163.927 28.049C164.615 28.2632 164.99 28.7988 165.051 29.6557ZM160.016 27.6588H162.62C163.132 27.6588 163.533 27.5287 163.824 27.2686C164.122 27.0008 164.271 26.6221 164.271 26.1324C164.271 25.6657 164.114 25.3138 163.801 25.0766C163.495 24.8394 163.063 24.7208 162.505 24.7208H160.016V27.6588Z" fill="black" fill-opacity="0.2"/>
<path d="M157.07 31.0214C156.351 31.8095 155.403 32.2035 154.226 32.2035C153.049 32.2035 152.104 31.8095 151.393 31.0214C150.675 30.2487 150.315 29.2196 150.315 27.9343C150.315 26.6566 150.675 25.6237 151.393 24.8356C152.104 24.0552 153.049 23.665 154.226 23.665C155.403 23.665 156.351 24.0552 157.07 24.8356C157.781 25.6313 158.136 26.6642 158.136 27.9343C158.136 29.212 157.781 30.241 157.07 31.0214ZM152.116 30.4017C152.643 31.0138 153.347 31.3198 154.226 31.3198C155.105 31.3198 155.808 31.0138 156.336 30.4017C156.863 29.7973 157.127 28.9748 157.127 27.9343C157.127 26.8937 156.863 26.0713 156.336 25.4668C155.808 24.8548 155.105 24.5487 154.226 24.5487C153.347 24.5487 152.643 24.8548 152.116 25.4668C151.588 26.0713 151.325 26.8937 151.325 27.9343C151.325 28.9748 151.588 29.7973 152.116 30.4017Z" fill="#1C1C1C"/>
<path d="M157.07 31.0214C156.351 31.8095 155.403 32.2035 154.226 32.2035C153.049 32.2035 152.104 31.8095 151.393 31.0214C150.675 30.2487 150.315 29.2196 150.315 27.9343C150.315 26.6566 150.675 25.6237 151.393 24.8356C152.104 24.0552 153.049 23.665 154.226 23.665C155.403 23.665 156.351 24.0552 157.07 24.8356C157.781 25.6313 158.136 26.6642 158.136 27.9343C158.136 29.212 157.781 30.241 157.07 31.0214ZM152.116 30.4017C152.643 31.0138 153.347 31.3198 154.226 31.3198C155.105 31.3198 155.808 31.0138 156.336 30.4017C156.863 29.7973 157.127 28.9748 157.127 27.9343C157.127 26.8937 156.863 26.0713 156.336 25.4668C155.808 24.8548 155.105 24.5487 154.226 24.5487C153.347 24.5487 152.643 24.8548 152.116 25.4668C151.588 26.0713 151.325 26.8937 151.325 27.9343C151.325 28.9748 151.588 29.7973 152.116 30.4017Z" fill="black" fill-opacity="0.2"/>
<path d="M150.142 23.8486V24.7208H145.704V27.326H149.683V28.1982H145.704V32.0198H144.741V23.8486H150.142Z" fill="#1C1C1C"/>
<path d="M150.142 23.8486V24.7208H145.704V27.326H149.683V28.1982H145.704V32.0198H144.741V23.8486H150.142Z" fill="black" fill-opacity="0.2"/>
<path d="M140.57 26.603V23.8486H141.522V32.0198H140.352L137.646 27.808C136.866 26.5685 136.3 25.6466 135.949 25.0422C135.972 26.1133 135.983 27.5211 135.983 29.2655V32.0198H135.031V23.8486H136.201L138.907 28.0605C139.687 29.2999 140.253 30.2219 140.604 30.8263C140.581 29.7552 140.57 28.3474 140.57 26.603Z" fill="#1C1C1C"/>
<path d="M140.57 26.603V23.8486H141.522V32.0198H140.352L137.646 27.808C136.866 26.5685 136.3 25.6466 135.949 25.0422C135.972 26.1133 135.983 27.5211 135.983 29.2655V32.0198H135.031V23.8486H136.201L138.907 28.0605C139.687 29.2999 140.253 30.2219 140.604 30.8263C140.581 29.7552 140.57 28.3474 140.57 26.603Z" fill="black" fill-opacity="0.2"/>
<path d="M133.048 31.0214C132.329 31.8095 131.381 32.2035 130.204 32.2035C129.027 32.2035 128.082 31.8095 127.371 31.0214C126.653 30.2487 126.293 29.2196 126.293 27.9343C126.293 26.6566 126.653 25.6237 127.371 24.8356C128.082 24.0552 129.027 23.665 130.204 23.665C131.381 23.665 132.329 24.0552 133.048 24.8356C133.759 25.6313 134.114 26.6642 134.114 27.9343C134.114 29.212 133.759 30.241 133.048 31.0214ZM128.094 30.4017C128.621 31.0138 129.325 31.3198 130.204 31.3198C131.083 31.3198 131.786 31.0138 132.314 30.4017C132.841 29.7973 133.105 28.9748 133.105 27.9343C133.105 26.8937 132.841 26.0713 132.314 25.4668C131.786 24.8548 131.083 24.5487 130.204 24.5487C129.325 24.5487 128.621 24.8548 128.094 25.4668C127.566 26.0713 127.303 26.8937 127.303 27.9343C127.303 28.9748 127.566 29.7973 128.094 30.4017Z" fill="#1C1C1C"/>
<path d="M133.048 31.0214C132.329 31.8095 131.381 32.2035 130.204 32.2035C129.027 32.2035 128.082 31.8095 127.371 31.0214C126.653 30.2487 126.293 29.2196 126.293 27.9343C126.293 26.6566 126.653 25.6237 127.371 24.8356C128.082 24.0552 129.027 23.665 130.204 23.665C131.381 23.665 132.329 24.0552 133.048 24.8356C133.759 25.6313 134.114 26.6642 134.114 27.9343C134.114 29.212 133.759 30.241 133.048 31.0214ZM128.094 30.4017C128.621 31.0138 129.325 31.3198 130.204 31.3198C131.083 31.3198 131.786 31.0138 132.314 30.4017C132.841 29.7973 133.105 28.9748 133.105 27.9343C133.105 26.8937 132.841 26.0713 132.314 25.4668C131.786 24.8548 131.083 24.5487 130.204 24.5487C129.325 24.5487 128.621 24.8548 128.094 25.4668C127.566 26.0713 127.303 26.8937 127.303 27.9343C127.303 28.9748 127.566 29.7973 128.094 30.4017Z" fill="black" fill-opacity="0.2"/>
<path d="M125.378 32.0198H124.415V23.8486H125.378V32.0198Z" fill="#1C1C1C"/>
<path d="M125.378 32.0198H124.415V23.8486H125.378V32.0198Z" fill="black" fill-opacity="0.2"/>
<path d="M117.229 23.8486H123.777V24.7208H121.002V32.0198H120.005V24.7208H117.229V23.8486Z" fill="#1C1C1C"/>
<path d="M117.229 23.8486H123.777V24.7208H121.002V32.0198H120.005V24.7208H117.229V23.8486Z" fill="black" fill-opacity="0.2"/>
<path d="M118.712 32.0198H117.691L116.739 29.6442H113.024L112.083 32.0198H111.074L114.331 23.8486H115.409L118.712 32.0198ZM113.402 28.6802L113.368 28.772H116.395L116.349 28.6687C116.158 28.202 115.661 26.9434 114.858 24.893C114.316 26.3467 113.83 27.6091 113.402 28.6802Z" fill="#1C1C1C"/>
<path d="M118.712 32.0198H117.691L116.739 29.6442H113.024L112.083 32.0198H111.074L114.331 23.8486H115.409L118.712 32.0198ZM113.402 28.6802L113.368 28.772H116.395L116.349 28.6687C116.158 28.202 115.661 26.9434 114.858 24.893C114.316 26.3467 113.83 27.6091 113.402 28.6802Z" fill="black" fill-opacity="0.2"/>
<path d="M107.724 32.2035C106.615 32.2035 105.71 31.8171 105.006 31.0444C104.303 30.2716 103.951 29.2349 103.951 27.9343C103.951 26.6336 104.303 25.5969 105.006 24.8242C105.71 24.0514 106.615 23.665 107.724 23.665C108.603 23.665 109.352 23.906 109.972 24.3881C110.591 24.8624 111 25.5586 111.199 26.4768H110.224C109.88 25.1914 109.047 24.5487 107.724 24.5487C106.891 24.5487 106.222 24.8471 105.717 25.4439C105.213 26.0483 104.96 26.8784 104.96 27.9343C104.96 28.9901 105.213 29.8164 105.717 30.4132C106.222 31.0176 106.891 31.3198 107.724 31.3198C108.351 31.3198 108.909 31.1247 109.398 30.7345C109.88 30.3596 110.174 29.7973 110.281 29.0475H111.244C111.137 30.0651 110.751 30.8416 110.086 31.3772C109.413 31.9281 108.626 32.2035 107.724 32.2035Z" fill="#1C1C1C"/>
<path d="M107.724 32.2035C106.615 32.2035 105.71 31.8171 105.006 31.0444C104.303 30.2716 103.951 29.2349 103.951 27.9343C103.951 26.6336 104.303 25.5969 105.006 24.8242C105.71 24.0514 106.615 23.665 107.724 23.665C108.603 23.665 109.352 23.906 109.972 24.3881C110.591 24.8624 111 25.5586 111.199 26.4768H110.224C109.88 25.1914 109.047 24.5487 107.724 24.5487C106.891 24.5487 106.222 24.8471 105.717 25.4439C105.213 26.0483 104.96 26.8784 104.96 27.9343C104.96 28.9901 105.213 29.8164 105.717 30.4132C106.222 31.0176 106.891 31.3198 107.724 31.3198C108.351 31.3198 108.909 31.1247 109.398 30.7345C109.88 30.3596 110.174 29.7973 110.281 29.0475H111.244C111.137 30.0651 110.751 30.8416 110.086 31.3772C109.413 31.9281 108.626 32.2035 107.724 32.2035Z" fill="black" fill-opacity="0.2"/>
<path d="M103.036 32.0198H102.072V23.8486H103.036V32.0198Z" fill="#1C1C1C"/>
<path d="M103.036 32.0198H102.072V23.8486H103.036V32.0198Z" fill="black" fill-opacity="0.2"/>
<path d="M97.2177 23.8486V31.1476H101.323V32.0198H96.2544V23.8486H97.2177Z" fill="#1C1C1C"/>
<path d="M97.2177 23.8486V31.1476H101.323V32.0198H96.2544V23.8486H97.2177Z" fill="black" fill-opacity="0.2"/>
<path d="M89.3052 23.8486H92.6995C93.5634 23.8486 94.2285 24.0743 94.6949 24.5257C95.1689 24.9771 95.4058 25.5892 95.4058 26.362C95.4058 27.1347 95.1689 27.7468 94.6949 28.1982C94.2285 28.6496 93.5634 28.8753 92.6995 28.8753H90.2684V32.0198H89.3052V23.8486ZM90.2684 28.0031H92.6995C93.2653 28.0031 93.6896 27.8654 93.9724 27.5899C94.2629 27.3069 94.4082 26.8975 94.4082 26.362C94.4082 25.8264 94.2629 25.4209 93.9724 25.1455C93.6896 24.8624 93.2653 24.7208 92.6995 24.7208H90.2684V28.0031Z" fill="#1C1C1C"/>
<path d="M89.3052 23.8486H92.6995C93.5634 23.8486 94.2285 24.0743 94.6949 24.5257C95.1689 24.9771 95.4058 25.5892 95.4058 26.362C95.4058 27.1347 95.1689 27.7468 94.6949 28.1982C94.2285 28.6496 93.5634 28.8753 92.6995 28.8753H90.2684V32.0198H89.3052V23.8486ZM90.2684 28.0031H92.6995C93.2653 28.0031 93.6896 27.8654 93.9724 27.5899C94.2629 27.3069 94.4082 26.8975 94.4082 26.362C94.4082 25.8264 94.2629 25.4209 93.9724 25.1455C93.6896 24.8624 93.2653 24.7208 92.6995 24.7208H90.2684V28.0031Z" fill="black" fill-opacity="0.2"/>
<path d="M82.356 23.8486H85.7503C86.6142 23.8486 87.2793 24.0743 87.7456 24.5257C88.2196 24.9771 88.4566 25.5892 88.4566 26.362C88.4566 27.1347 88.2196 27.7468 87.7456 28.1982C87.2793 28.6496 86.6142 28.8753 85.7503 28.8753H83.3192V32.0198H82.356V23.8486ZM83.3192 28.0031H85.7503C86.316 28.0031 86.7403 27.8654 87.0232 27.5899C87.3137 27.3069 87.459 26.8975 87.459 26.362C87.459 25.8264 87.3137 25.4209 87.0232 25.1455C86.7403 24.8624 86.316 24.7208 85.7503 24.7208H83.3192V28.0031Z" fill="#1C1C1C"/>
<path d="M82.356 23.8486H85.7503C86.6142 23.8486 87.2793 24.0743 87.7456 24.5257C88.2196 24.9771 88.4566 25.5892 88.4566 26.362C88.4566 27.1347 88.2196 27.7468 87.7456 28.1982C87.2793 28.6496 86.6142 28.8753 85.7503 28.8753H83.3192V32.0198H82.356V23.8486ZM83.3192 28.0031H85.7503C86.316 28.0031 86.7403 27.8654 87.0232 27.5899C87.3137 27.3069 87.459 26.8975 87.459 26.362C87.459 25.8264 87.3137 25.4209 87.0232 25.1455C86.7403 24.8624 86.316 24.7208 85.7503 24.7208H83.3192V28.0031Z" fill="black" fill-opacity="0.2"/>
<path d="M81.8888 32.0198H80.8682L79.9164 29.6442H76.2009L75.2606 32.0198H74.2515L77.5082 23.8486H78.5862L81.8888 32.0198ZM76.5794 28.6802L76.545 28.772H79.5724L79.5265 28.6687C79.3354 28.202 78.8384 26.9434 78.0357 24.893C77.4929 26.3467 77.0075 27.6091 76.5794 28.6802Z" fill="#1C1C1C"/>
<path d="M81.8888 32.0198H80.8682L79.9164 29.6442H76.2009L75.2606 32.0198H74.2515L77.5082 23.8486H78.5862L81.8888 32.0198ZM76.5794 28.6802L76.545 28.772H79.5724L79.5265 28.6687C79.3354 28.202 78.8384 26.9434 78.0357 24.893C77.4929 26.3467 77.0075 27.6091 76.5794 28.6802Z" fill="black" fill-opacity="0.2"/>
<path d="M74.3462 36.8636C74.3462 35.9128 75.1163 35.1421 76.0663 35.1421H137.13C138.08 35.1421 138.85 35.9128 138.85 36.8636V50.6353C138.85 51.586 138.08 52.3567 137.13 52.3567H76.0663C75.1163 52.3567 74.3462 51.586 74.3462 50.6353V36.8636Z" fill="#2CC295"/>
<path d="M133.394 41.7874L134.586 39.8823H135.676L132.557 44.7713V48.0535H131.593V44.7713L128.474 39.8823H129.575L130.779 41.7989C131.299 42.6099 131.735 43.3138 132.086 43.9105C132.576 43.0842 133.011 42.3765 133.394 41.7874Z" fill="white"/>
<path d="M121.975 39.8823H128.523V40.7545H125.747V48.0535H124.75V40.7545H121.975V39.8823Z" fill="white"/>
<path d="M121.744 39.8823V40.7545H117.031V43.3597H121.286V44.2319H117.031V47.1813H121.698V48.0535H116.068V39.8823H121.744Z" fill="white"/>
<path d="M115.326 39.8823V40.7545H110.889V43.3597H114.868V44.2319H110.889V48.0535H109.925V39.8823H115.326Z" fill="white"/>
<path d="M109.458 48.0535H108.438L107.486 45.6779H103.77L102.83 48.0535H101.821L105.078 39.8823H106.155L109.458 48.0535ZM104.149 44.7139L104.114 44.8057H107.142L107.096 44.7024C106.905 44.2357 106.408 42.9771 105.605 40.9267C105.062 42.3804 104.577 43.6428 104.149 44.7139Z" fill="white"/>
<path d="M98.7513 48.2372C97.6886 48.2372 96.8592 47.9962 96.2629 47.5142C95.6666 47.0322 95.3646 46.313 95.3569 45.3566H96.3546C96.3775 46.6955 97.1764 47.365 98.7513 47.365C99.4164 47.365 99.9248 47.2349 100.276 46.9748C100.636 46.7146 100.815 46.3359 100.815 45.8386C100.815 45.4484 100.666 45.1462 100.368 44.932C100.078 44.7101 99.5655 44.5188 98.8316 44.3582L98.1091 44.1975C97.2835 44.0062 96.6642 43.7308 96.2514 43.3712C95.8386 43.0039 95.6322 42.4913 95.6322 41.8333C95.6322 41.183 95.8844 40.6666 96.389 40.284C96.8936 39.8938 97.5701 39.6987 98.4187 39.6987C98.9921 39.6987 99.489 39.7676 99.9095 39.9053C100.338 40.043 100.67 40.2381 100.907 40.4906C101.144 40.7354 101.316 41.0032 101.423 41.294C101.538 41.5847 101.599 41.906 101.607 42.258H100.62C100.575 41.6765 100.383 41.2519 100.047 40.9841C99.7184 40.7087 99.1756 40.5709 98.4187 40.5709C97.8454 40.5709 97.402 40.6819 97.0885 40.9038C96.7827 41.1256 96.6298 41.4355 96.6298 41.8333C96.6298 42.2312 96.7636 42.5411 97.0312 42.7629C97.2911 42.9848 97.7957 43.1799 98.5449 43.3482L99.2673 43.5089C100.169 43.7078 100.819 43.9947 101.217 44.3696C101.614 44.7369 101.813 45.2265 101.813 45.8386C101.813 46.5808 101.542 47.1661 100.999 47.5945C100.456 48.023 99.7069 48.2372 98.7513 48.2372Z" fill="white"/>
<path d="M92.9593 39.8823L90.1957 43.8302L93.1199 48.0535H91.9961L90.7805 46.2862C90.5971 46.026 90.211 45.4599 89.6223 44.5877C89.4006 44.9166 89.0107 45.4828 88.4526 46.2862L87.2142 48.0535H86.1362L89.0834 43.8646L86.2968 39.8823H87.4206L88.5329 41.5005C89.0146 42.1891 89.3815 42.7323 89.6338 43.1301C89.8708 42.7706 90.2454 42.2235 90.7576 41.489L91.8814 39.8823H92.9593Z" fill="white"/>
<path d="M85.5229 45.6894L85.6031 47.0092C85.6413 47.4682 85.7407 47.8164 85.9013 48.0535H84.9036C84.7354 47.8087 84.6475 47.4453 84.6399 46.9633L84.6055 46.0911C84.5825 45.5402 84.4602 45.15 84.2385 44.9205C84.0168 44.6833 83.6537 44.5647 83.1491 44.5647H80.4887V48.0535H79.5254V39.8823H82.9771C83.818 39.8823 84.487 40.0774 84.9839 40.4676C85.4884 40.8578 85.7407 41.4049 85.7407 42.1087C85.7407 42.6061 85.6184 43.0269 85.3738 43.3712C85.1368 43.7078 84.8119 43.945 84.399 44.0827C85.0871 44.2969 85.4617 44.8325 85.5229 45.6894ZM80.4887 43.6925H83.0918C83.604 43.6925 84.0053 43.5624 84.2958 43.3023C84.594 43.0345 84.7431 42.6558 84.7431 42.1661C84.7431 41.6994 84.5863 41.3475 84.2729 41.1103C83.9671 40.8731 83.5352 40.7545 82.9771 40.7545H80.4887V43.6925Z" fill="white"/>
<path fill-rule="evenodd" clip-rule="evenodd" d="M42.9136 28.7017V44.7123H46.9411V39.1366H49.4471C51.6854 39.1366 51.7574 41.233 51.8137 42.8722L51.8141 42.8833V44.3769C51.811 44.5029 51.8122 44.589 51.8132 44.6612C51.8136 44.6896 51.814 44.7159 51.8141 44.7416V44.7496H51.8141H55.9161V44.563V40.2711C55.9161 38.6222 54.5805 37.2855 52.9328 37.2855H52.9152V37.278C54.9066 36.8302 56.1596 35.509 56.1596 33.2697C56.1596 30.3587 54.0116 28.7017 50.454 28.7017H42.9136ZM49.6708 35.8449H46.9411V31.9934H49.6708C51.2818 31.9934 52.1321 32.5756 52.1321 33.9191C52.1321 35.2627 51.2818 35.8449 49.6708 35.8449Z" fill="#2CC295"/>
<path d="M26.2437 44.7504L32.3297 28.7397H36.3795L42.5103 44.7504H38.1024L37.0732 41.4139H31.5913L30.562 44.7504H26.2437ZM32.5087 38.3461H36.1782L34.3658 32.4345H34.321L32.5087 38.3461Z" fill="#2CC295"/>
<path d="M9.44482 44.7504V28.7397H14.3673L17.6565 38.9507H17.7012L20.9903 28.7397H25.9128V44.7504H22.1091V34.7857H22.0643L19.0885 44.7504H16.2692L13.2933 34.7857H13.2486V44.7504H9.44482Z" fill="#2CC295"/>
<path fill-rule="evenodd" clip-rule="evenodd" d="M42.9136 8.17529V24.186H46.9411V18.6102H49.4471C51.6854 18.6102 51.7574 20.7067 51.8137 22.3459L51.8141 22.3569V23.8505C51.811 23.9765 51.8122 24.0627 51.8132 24.1349C51.8136 24.1633 51.814 24.1895 51.8141 24.2152V24.2233H51.8141H55.9161V24.0367V19.7448C55.9161 18.0958 54.5805 16.7591 52.9328 16.7591H52.9152V16.7516C54.9066 16.3038 56.1596 14.9826 56.1596 12.7434C56.1596 9.83234 54.0116 8.17529 50.454 8.17529H42.9136ZM49.6708 15.3185H46.9411V11.467H49.6708C51.2818 11.467 52.1321 12.0492 52.1321 13.3928C52.1321 14.7363 51.2818 15.3185 49.6708 15.3185Z" fill="#2CC295"/>
<path d="M26.2437 24.2231L32.3297 8.2124H36.3795L42.5103 24.2231H38.1024L37.0732 20.8866H31.5913L30.562 24.2231H26.2437ZM32.5087 17.8188H36.1782L34.3658 11.9072H34.321L32.5087 17.8188Z" fill="#2CC295"/>
<path d="M9.44482 24.2231V8.2124H14.3673L17.6565 18.4234H17.7012L20.9903 8.2124H25.9128V24.2231H22.1091V14.2584H22.0643L19.0885 24.2231H16.2692L13.2933 14.2584H13.2486V24.2231H9.44482Z" fill="#2CC295"/>
<path fill-rule="evenodd" clip-rule="evenodd" d="M0 3.44292C0 1.54145 1.54024 0 3.44023 0H62.2108C64.1108 0 65.651 1.54145 65.651 3.44293V49.5571C65.651 51.4586 64.1108 53 62.2108 53H3.44023C1.54024 53 0 51.4585 0 49.5571V3.44292ZM5.44484 1.97761C3.54485 1.97761 2.00461 3.51906 2.00461 5.42054V47.5795C2.00461 49.4809 3.54486 51.0224 5.44484 51.0224H60.2062C62.1062 51.0224 63.6464 49.4809 63.6464 47.5795V5.42054C63.6464 3.51906 62.1062 1.97761 60.2062 1.97761H5.44484Z" fill="#2CC295"/>
</svg>
