<svg width="63" height="51" viewBox="0 0 63 51" fill="none" xmlns="http://www.w3.org/2000/svg">
<path fill-rule="evenodd" clip-rule="evenodd" d="M41.1808 27.6191V43.0256H45.0457V37.6603H47.4505C49.5985 37.6603 49.6675 39.6776 49.7216 41.255L49.7219 41.2656V42.7028C49.719 42.8241 49.7201 42.907 49.7211 42.9765C49.7215 43.0038 49.7219 43.0291 49.7219 43.0538V43.0615H49.7219H53.6584V42.882V38.752C53.6584 37.1653 52.3766 35.879 50.7955 35.879H50.7786V35.8718C52.6896 35.4409 53.892 34.1696 53.892 32.0148C53.892 29.2137 51.8307 27.6191 48.4167 27.6191H41.1808ZM47.6652 34.4928H45.0457V30.7866H47.6652C49.2112 30.7866 50.0271 31.3469 50.0271 32.6397C50.0271 33.9326 49.2112 34.4928 47.6652 34.4928Z" fill="white"/>
<path d="M25.1843 43.0618L31.0245 27.6553H34.9108L40.794 43.0618H36.5642L35.5765 39.8512H30.316L29.3283 43.0618H25.1843ZM31.1963 36.8992H34.7176L32.9784 31.2106H32.9355L31.1963 36.8992Z" fill="white"/>
<path d="M9.06366 43.0618V27.6553H13.7874L16.9437 37.481H16.9866L20.1429 27.6553H24.8667V43.0618H21.2165V33.4731H21.1736L18.3179 43.0618H15.6125L12.7568 33.4731H12.7138V43.0618H9.06366Z" fill="white"/>
<path fill-rule="evenodd" clip-rule="evenodd" d="M41.1808 7.86719V23.2737H45.0457V17.9083H47.4505C49.5985 17.9083 49.6675 19.9257 49.7216 21.503L49.7219 21.5137V22.9509C49.719 23.0721 49.7201 23.155 49.7211 23.2245C49.7215 23.2519 49.7219 23.2771 49.7219 23.3018V23.3096H49.7219H53.6584V23.13V19.0001C53.6584 17.4134 52.3766 16.1271 50.7955 16.1271H50.7786V16.1199C52.6896 15.6889 53.892 14.4176 53.892 12.2629C53.892 9.46171 51.8307 7.86719 48.4167 7.86719H41.1808ZM47.6652 14.7409H45.0457V11.0347H47.6652C49.2112 11.0347 50.0271 11.5949 50.0271 12.8878C50.0271 14.1806 49.2112 14.7409 47.6652 14.7409Z" fill="white"/>
<path d="M25.1843 23.3088L31.0245 7.90234H34.9108L40.794 23.3088H36.5642L35.5765 20.0983H30.316L29.3283 23.3088H25.1843ZM31.1963 17.1462H34.7176L32.9784 11.4577H32.9355L31.1963 17.1462Z" fill="white"/>
<path d="M9.06366 23.3088V7.90234H13.7874L16.9437 17.728H16.9866L20.1429 7.90234H24.8667V23.3088H21.2165V13.7202H21.1736L18.3179 23.3088H15.6125L12.7568 13.7202H12.7138V23.3088H9.06366Z" fill="white"/>
<path fill-rule="evenodd" clip-rule="evenodd" d="M0 3.313C0 1.48328 1.47805 0 3.30131 0H59.6987C61.522 0 63 1.48328 63 3.31301V47.687C63 49.5167 61.522 51 59.6987 51H3.30131C1.47805 51 0 49.5167 0 47.687V3.313ZM5.22497 1.90298C3.40171 1.90298 1.92366 3.38627 1.92366 5.21599V45.784C1.92366 47.6137 3.40171 49.097 5.22498 49.097H57.775C59.5983 49.097 61.0763 47.6137 61.0763 45.784V5.21599C61.0763 3.38627 59.5983 1.90298 57.775 1.90298H5.22497Z" fill="white"/>
</svg>
