<svg width="455" height="301" viewBox="0 0 455 301" fill="none" xmlns="http://www.w3.org/2000/svg">
<rect width="455" height="300.5" rx="24" fill="#E8F4F0"/>
<g clip-path="url(#clip0_1379_7068)">
<path d="M261.028 191.123C259.238 190.643 257.95 189.863 257.162 188.782C256.375 187.702 256.191 186.355 256.609 184.742L258.29 185.192C257.725 187.456 258.769 188.944 261.422 189.655C262.542 189.955 263.457 189.965 264.167 189.686C264.89 189.41 265.363 188.854 265.588 188.017C265.764 187.36 265.649 186.784 265.243 186.289C264.854 185.784 264.077 185.231 262.913 184.629L261.769 184.033C260.464 183.338 259.545 182.595 259.012 181.803C258.482 180.999 258.365 180.043 258.662 178.935C258.956 177.84 259.613 177.085 260.636 176.669C261.662 176.24 262.89 176.217 264.319 176.6C265.285 176.858 266.091 177.199 266.738 177.62C267.397 178.045 267.869 178.524 268.154 179.056C268.443 179.575 268.612 180.103 268.661 180.641C268.723 181.182 268.682 181.751 268.536 182.347L266.874 181.902C267.059 180.902 266.929 180.101 266.483 179.498C266.053 178.886 265.201 178.409 263.926 178.068C262.96 177.809 262.163 177.796 261.535 178.028C260.92 178.263 260.522 178.716 260.343 179.385C260.163 180.055 260.249 180.637 260.6 181.131C260.938 181.622 261.7 182.178 262.886 182.8L264.03 183.396C265.46 184.139 266.426 184.915 266.926 185.725C267.43 186.523 267.544 187.437 267.268 188.467C266.934 189.717 266.212 190.579 265.105 191.055C263.997 191.532 262.638 191.554 261.028 191.123ZM281.138 185.247C282.219 185.537 282.972 186.077 283.395 186.867C283.835 187.647 283.915 188.559 283.636 189.602L281.824 196.364L280.278 195.949L282.049 189.343C282.442 187.874 281.943 186.954 280.552 186.581C279.818 186.384 279.127 186.517 278.479 186.978C277.847 187.43 277.388 188.19 277.102 189.259L275.642 194.707L274.096 194.293L275.867 187.686C276.26 186.218 275.761 185.297 274.371 184.925C273.649 184.731 272.965 184.865 272.316 185.327C271.672 185.775 271.206 186.534 270.92 187.603L269.46 193.051L267.915 192.637L270.586 182.668L272.054 183.062L271.66 184.53C272.621 183.572 273.732 183.263 274.994 183.601C276.488 184.001 277.345 184.9 277.564 186.298C278.594 185.235 279.785 184.885 281.138 185.247ZM292.628 197.913L293.188 198.063L292.852 199.318C292.584 199.288 292.295 199.231 291.986 199.149C290.943 198.869 290.51 198.242 290.689 197.269C289.707 198.151 288.482 198.396 287.013 198.003C285.919 197.709 285.123 197.227 284.627 196.555C284.146 195.875 284.031 195.071 284.279 194.143C284.762 192.34 286.268 191.64 288.797 192.041L290.268 192.27C291.342 192.433 291.986 192.116 292.2 191.317C292.349 190.763 292.282 190.318 292 189.98C291.73 189.645 291.19 189.369 290.379 189.152C289.516 188.921 288.852 188.902 288.386 189.094C287.936 189.277 287.588 189.729 287.339 190.45L285.794 190.035C286.513 187.868 288.16 187.129 290.736 187.819C293.234 188.488 294.225 189.789 293.707 191.721L292.216 197.285C292.13 197.607 292.267 197.816 292.628 197.913ZM287.443 196.71C288.267 196.93 289.055 196.873 289.808 196.536C290.558 196.212 291.055 195.593 291.3 194.679L291.615 193.5C291.273 193.643 290.798 193.668 290.188 193.573L288.692 193.359C287.828 193.238 287.177 193.27 286.741 193.457C286.317 193.647 286.034 194.006 285.893 194.534C285.755 195.05 285.814 195.5 286.069 195.886C286.328 196.259 286.786 196.534 287.443 196.71ZM301.601 190.813C301.858 190.882 302.031 190.935 302.117 190.972L301.719 192.46L301.332 192.356C300.302 192.08 299.428 192.122 298.71 192.482C298.009 192.832 297.533 193.478 297.281 194.418L295.759 200.097L294.213 199.683L296.884 189.715L298.353 190.108L297.882 191.866C298.893 190.771 300.133 190.42 301.601 190.813ZM307.985 192.689L307.623 194.042L305.575 193.493L303.841 199.965C303.689 200.531 303.993 200.917 304.753 201.12L305.661 201.363L305.314 202.658C304.879 202.583 304.507 202.504 304.198 202.421C302.536 201.976 301.89 201.064 302.26 199.686L304.03 193.079L302.388 192.639L302.75 191.287L304.392 191.727L305.148 188.906L306.693 189.32L305.938 192.141L307.985 192.689ZM322.623 207.296L320.904 206.835L320.372 202.406L314.113 200.729L311.457 204.304L309.757 203.848L318.929 191.564L320.745 192.05L322.623 207.296ZM315.185 199.277L315.086 199.416L320.186 200.783L320.155 200.588C320.044 199.717 319.774 197.374 319.347 193.56C317.777 195.762 316.39 197.668 315.185 199.277ZM331.22 198.667C332.328 198.964 333.11 199.497 333.566 200.268C334.022 201.039 334.103 201.972 333.81 203.067L332.003 209.809L330.457 209.395L332.223 202.807C332.619 201.326 332.058 200.382 330.538 199.975C329.817 199.782 329.107 199.881 328.408 200.274C327.71 200.666 327.222 201.378 326.946 202.408L325.435 208.049L323.889 207.635L326.56 197.667L328.028 198.06L327.63 199.548C328.697 198.605 329.894 198.311 331.22 198.667ZM342.811 211.359L343.371 211.509L343.035 212.765C342.767 212.735 342.478 212.678 342.169 212.595C341.126 212.316 340.693 211.689 340.871 210.715C339.89 211.598 338.664 211.842 337.196 211.449C336.102 211.156 335.306 210.673 334.809 210.002C334.329 209.321 334.213 208.517 334.462 207.59C334.945 205.787 336.451 205.086 338.98 205.488L340.451 205.716C341.525 205.88 342.169 205.562 342.383 204.764C342.532 204.21 342.465 203.764 342.183 203.426C341.913 203.092 341.373 202.816 340.562 202.598C339.699 202.367 339.034 202.348 338.569 202.541C338.119 202.724 337.77 203.176 337.522 203.896L335.977 203.482C336.696 201.314 338.343 200.575 340.919 201.265C343.417 201.935 344.408 203.236 343.89 205.167L342.399 210.731C342.313 211.053 342.45 211.262 342.811 211.359ZM337.626 210.156C338.45 210.377 339.238 210.319 339.991 209.982C340.74 209.659 341.238 209.04 341.483 208.125L341.798 206.947C341.456 207.09 340.98 207.114 340.371 207.02L338.875 206.805C338.011 206.684 337.36 206.717 336.923 206.904C336.5 207.094 336.217 207.453 336.076 207.981C335.938 208.496 335.996 208.947 336.252 209.332C336.511 209.706 336.969 209.98 337.626 210.156ZM345.847 213.519L344.302 213.105L347.988 199.35L349.533 199.764L345.847 213.519ZM354.451 209.571L356.969 205.815L358.65 206.265L351.348 216.67C350.827 217.427 350.265 217.905 349.66 218.101C349.051 218.311 348.329 218.304 347.492 218.08C347.208 218.004 346.904 217.902 346.58 217.773L346.927 216.479L347.835 216.722C348.723 216.96 349.439 216.71 349.982 215.972L350.578 215.138L349.589 203.837L351.289 204.293L351.587 208.824C351.695 210.427 351.787 211.991 351.862 213.515C352.556 212.417 353.419 211.103 354.451 209.571ZM360.49 217.691C357.824 216.976 356.718 215.465 357.17 213.157L358.735 213.576C358.625 214.347 358.727 214.947 359.04 215.376C359.369 215.796 359.972 216.123 360.847 216.358C362.444 216.786 363.381 216.484 363.657 215.454C363.778 215.003 363.702 214.617 363.429 214.296C363.169 213.977 362.63 213.619 361.812 213.22L360.931 212.798C358.961 211.856 358.187 210.6 358.608 209.028C358.839 208.165 359.344 207.569 360.123 207.239C360.917 206.9 361.875 206.881 362.996 207.181C365.636 207.888 366.693 209.352 366.167 211.571L364.622 211.157C364.776 210.426 364.694 209.858 364.374 209.455C364.054 209.052 363.476 208.738 362.638 208.514C361.969 208.334 361.419 208.325 360.989 208.486C360.56 208.647 360.283 208.959 360.159 209.423C360.041 209.861 360.108 210.231 360.358 210.533C360.609 210.834 361.074 211.159 361.754 211.507L362.596 211.919C363.754 212.491 364.536 213.074 364.944 213.666C365.364 214.262 365.465 214.965 365.248 215.777C364.996 216.717 364.445 217.356 363.595 217.694C362.761 218.023 361.727 218.022 360.49 217.691ZM370.713 207.882L369.071 207.442L369.578 205.549L371.22 205.989L370.713 207.882ZM367.6 219.347L366.054 218.933L368.725 208.965L370.271 209.379L367.6 219.347ZM373.375 221.143C370.709 220.429 369.603 218.918 370.056 216.61L371.621 217.029C371.511 217.8 371.612 218.4 371.925 218.829C372.254 219.248 372.857 219.576 373.733 219.81C375.33 220.238 376.266 219.937 376.542 218.907C376.663 218.456 376.587 218.07 376.314 217.748C376.054 217.43 375.515 217.072 374.697 216.673L373.817 216.251C371.847 215.309 371.072 214.052 371.493 212.481C371.724 211.618 372.229 211.022 373.008 210.692C373.803 210.353 374.76 210.333 375.881 210.634C378.521 211.341 379.578 212.804 379.053 215.024L377.507 214.61C377.662 213.878 377.579 213.311 377.259 212.908C376.939 212.505 376.361 212.191 375.524 211.967C374.854 211.787 374.304 211.778 373.875 211.939C373.445 212.1 373.168 212.412 373.044 212.876C372.927 213.314 372.993 213.683 373.244 213.985C373.494 214.287 373.959 214.612 374.639 214.96L375.481 215.371C376.639 215.944 377.422 216.526 377.829 217.119C378.249 217.714 378.35 218.418 378.133 219.229C377.881 220.169 377.33 220.809 376.48 221.147C375.647 221.476 374.612 221.474 373.375 221.143Z" fill="#E3555A"/>
</g>
<rect x="225.847" y="144.612" width="207" height="55" rx="7.5" transform="rotate(15 225.847 144.612)" stroke="#E3555A"/>
<rect x="30.683" y="177.183" width="123" height="55" rx="7.5" transform="rotate(-30 30.683 177.183)" stroke="#042222"/>
<path d="M73.445 188.729L74.7162 190.651C75.1739 191.31 75.6274 191.749 76.0765 191.967L74.5696 192.837C74.1023 192.614 73.6528 192.142 73.2213 191.422L72.4093 190.135C71.8947 189.324 71.3699 188.842 70.8351 188.688C70.2935 188.524 69.6417 188.662 68.8796 189.102L64.8613 191.422L67.9013 196.687L66.4463 197.527L59.3263 185.195L64.5398 182.185C65.81 181.451 66.9903 181.163 68.0809 181.318C69.183 181.467 70.0407 182.073 70.654 183.135C71.0874 183.885 71.2693 184.627 71.1998 185.36C71.1352 186.075 70.8511 186.716 70.3475 187.284C71.5734 187.007 72.6059 187.489 73.445 188.729ZM64.1013 190.105L68.033 187.835C68.8067 187.388 69.2995 186.842 69.5117 186.196C69.7287 185.532 69.6238 184.831 69.1972 184.092C68.7905 183.387 68.2471 182.993 67.567 182.908C66.8985 182.817 66.1427 183.014 65.2998 183.501L61.5413 185.671L64.1013 190.105ZM79.9634 173.28L79.2292 181.648L87.3259 185.472L85.6285 186.452L82.2525 184.845C81.7488 184.612 80.6723 184.094 79.0232 183.291C78.975 183.981 78.8794 185.176 78.7365 186.875L78.4059 190.622L76.7777 191.562L77.5791 182.67L69.9002 179.09L71.5976 178.11L74.6877 179.582C76.0152 180.201 77.0428 180.701 77.7705 181.082C77.8151 180.332 77.9043 179.18 78.0379 177.625L78.3353 174.22L79.9634 173.28ZM96.6849 180.438C95.0798 181.365 93.617 181.724 92.2963 181.517C90.9757 181.31 89.8929 180.487 89.048 179.051L90.5549 178.181C91.7562 180.182 93.5462 180.495 95.9249 179.122C96.9295 178.542 97.584 177.902 97.8885 177.203C98.2045 176.497 98.1459 175.769 97.7126 175.018C97.3726 174.429 96.8841 174.103 96.2471 174.04C95.615 173.958 94.6746 174.116 93.4261 174.514L92.1949 174.901C90.7812 175.333 89.6059 175.457 88.669 175.274C87.7255 175.08 86.967 174.486 86.3937 173.493C85.827 172.512 85.7581 171.512 86.1869 170.495C86.609 169.466 87.4609 168.582 88.7426 167.842C89.6086 167.342 90.4192 167.012 91.1743 166.854C91.9409 166.688 92.6132 166.692 93.1911 166.867C93.7624 167.03 94.2556 167.284 94.6706 167.629C95.0971 167.968 95.4695 168.4 95.7877 168.924L94.2981 169.784C93.7222 168.947 93.0635 168.472 92.3221 168.362C91.5856 168.233 90.6457 168.498 89.5026 169.158C88.6366 169.658 88.0635 170.212 87.7834 170.82C87.5149 171.422 87.5539 172.023 87.9006 172.623C88.2473 173.224 88.7193 173.575 89.3168 173.676C89.9027 173.785 90.8348 173.639 92.1131 173.24L93.3443 172.852C94.8802 172.366 96.1117 172.232 97.0388 172.451C97.9592 172.659 98.6861 173.224 99.2195 174.148C99.8661 175.268 99.9662 176.388 99.5197 177.508C99.0732 178.628 98.1283 179.605 96.6849 180.438ZM109.368 171.245L109.871 170.955L110.521 172.081C110.31 172.249 110.066 172.413 109.789 172.573C108.853 173.113 108.104 172.975 107.542 172.161C107.471 173.479 106.778 174.518 105.462 175.278C104.48 175.845 103.577 176.067 102.751 175.943C101.93 175.801 101.279 175.314 100.799 174.483C99.8662 172.866 100.436 171.306 102.508 169.802L103.709 168.923C104.585 168.279 104.816 167.599 104.402 166.883C104.116 166.387 103.753 166.119 103.315 166.08C102.888 166.034 102.311 166.221 101.583 166.641C100.81 167.087 100.326 167.543 100.133 168.009C99.9449 168.456 100.018 169.022 100.352 169.707L98.9659 170.507C97.9414 168.466 98.5838 166.779 100.893 165.445C103.133 164.152 104.753 164.371 105.753 166.103L108.633 171.092C108.8 171.38 109.045 171.431 109.368 171.245ZM104.851 174.061C105.59 173.634 106.107 173.036 106.401 172.265C106.702 171.506 106.616 170.717 106.142 169.897L105.532 168.841C105.392 169.184 105.072 169.537 104.575 169.902L103.366 170.808C102.668 171.333 102.231 171.817 102.055 172.257C101.89 172.691 101.944 173.145 102.217 173.618C102.484 174.08 102.844 174.357 103.297 174.45C103.744 174.53 104.262 174.401 104.851 174.061ZM109.034 158.067L108.237 158.527C107.44 158.987 107.285 159.638 107.772 160.481L108.322 161.434L110.227 160.334L110.927 161.546L109.022 162.646L113.482 170.371L112.096 171.171L107.636 163.446L106.164 164.296L105.464 163.084L106.936 162.234L106.406 161.316C105.439 159.641 105.787 158.324 107.45 157.364C107.67 157.238 107.971 157.079 108.354 156.889L109.034 158.067ZM121.472 159.8L121.752 160.285L114.962 164.205C115.592 165.135 116.286 165.711 117.046 165.934C117.8 166.146 118.586 166.015 119.406 165.542C120.642 164.828 121.113 163.818 120.819 162.509L122.257 161.679C122.534 162.72 122.497 163.696 122.146 164.607C121.788 165.506 121.106 166.246 120.102 166.826C118.866 167.54 117.624 167.695 116.375 167.292C115.115 166.896 114.071 165.981 113.245 164.55C112.431 163.141 112.159 161.789 112.428 160.495C112.685 159.207 113.431 158.206 114.667 157.493C115.949 156.753 117.21 156.618 118.451 157.087C119.692 157.556 120.699 158.46 121.472 159.8ZM115.397 158.758C114.669 159.178 114.208 159.752 114.013 160.48C113.811 161.197 113.899 162.016 114.277 162.938L119.542 159.898C119.02 159.152 118.387 158.671 117.646 158.452C116.897 158.222 116.147 158.324 115.397 158.758ZM123.926 152.424L124.626 153.637L122.79 154.697L126.14 160.499C126.433 161.007 126.921 161.065 127.602 160.671L128.416 160.201L129.086 161.362C128.725 161.617 128.406 161.824 128.129 161.984C126.639 162.844 125.538 162.656 124.824 161.421L121.404 155.497L119.932 156.347L119.232 155.134L120.704 154.284L119.244 151.756L120.63 150.956L122.09 153.484L123.926 152.424ZM131.93 152.746L131.054 148.309L132.561 147.439L134.755 159.959C134.923 160.863 134.863 161.599 134.574 162.166C134.292 162.744 133.776 163.25 133.025 163.683C132.771 163.83 132.484 163.973 132.164 164.111L131.494 162.951L132.308 162.481C133.105 162.021 133.434 161.338 133.296 160.432L133.128 159.421L124.438 152.129L125.962 151.249L129.376 154.243C130.587 155.299 131.757 156.34 132.888 157.365C132.603 156.098 132.284 154.558 131.93 152.746Z" fill="#042222"/>
<rect x="27.5" y="47.5" width="244" height="55" rx="27.5" fill="#66B29B"/>
<rect x="27.5" y="47.5" width="244" height="55" rx="27.5" stroke="#042222"/>
<path d="M60.3 68.76H66.22C67.7267 68.76 68.8867 69.1533 69.7 69.94C70.5267 70.7267 70.94 71.7933 70.94 73.14C70.94 74.4867 70.5267 75.5533 69.7 76.34C68.8867 77.1267 67.7267 77.52 66.22 77.52H61.98V83H60.3V68.76ZM61.98 76H66.22C67.2067 76 67.9467 75.76 68.44 75.28C68.9467 74.7867 69.2 74.0733 69.2 73.14C69.2 72.2067 68.9467 71.5 68.44 71.02C67.9467 70.5267 67.2067 70.28 66.22 70.28H61.98V76ZM81.0164 77.84V78.4H73.1764C73.2564 79.52 73.5697 80.3667 74.1164 80.94C74.6631 81.5 75.4097 81.78 76.3564 81.78C77.7831 81.78 78.6964 81.14 79.0964 79.86H80.7564C80.4764 80.9 79.9564 81.7267 79.1964 82.34C78.4364 82.94 77.4764 83.24 76.3164 83.24C74.8897 83.24 73.7364 82.7533 72.8564 81.78C71.9631 80.8067 71.5164 79.4933 71.5164 77.84C71.5164 76.2133 71.9564 74.9067 72.8364 73.92C73.7031 72.9333 74.8497 72.44 76.2764 72.44C77.7564 72.44 78.9164 72.9533 79.7564 73.98C80.5964 75.0067 81.0164 76.2933 81.0164 77.84ZM76.2764 73.9C75.4364 73.9 74.7497 74.1667 74.2164 74.7C73.6831 75.22 73.3497 75.9733 73.2164 76.96H79.2964C79.2164 76.0533 78.9097 75.32 78.3764 74.76C77.8431 74.1867 77.1431 73.9 76.2764 73.9ZM87.7548 72.52C88.0215 72.52 88.2015 72.5267 88.2948 72.54V74.08H87.8948C86.8282 74.08 85.9948 74.3467 85.3948 74.88C84.8082 75.4 84.5148 76.1467 84.5148 77.12V83H82.9148V72.68H84.4348V74.5C85.1282 73.18 86.2348 72.52 87.7548 72.52ZM93.0197 83.24C90.2597 83.24 88.7997 82.0667 88.6397 79.72H90.2597C90.353 80.4933 90.6064 81.0467 91.0197 81.38C91.4464 81.7 92.113 81.86 93.0197 81.86C94.673 81.86 95.4997 81.3267 95.4997 80.26C95.4997 79.7933 95.3264 79.44 94.9797 79.2C94.6464 78.96 94.033 78.7533 93.1397 78.58L92.1797 78.4C90.033 78 88.9597 76.9867 88.9597 75.36C88.9597 74.4667 89.293 73.76 89.9597 73.24C90.6397 72.7067 91.5597 72.44 92.7197 72.44C95.453 72.44 96.853 73.58 96.9197 75.86H95.3197C95.2797 75.1133 95.053 74.5867 94.6397 74.28C94.2264 73.9733 93.5864 73.82 92.7197 73.82C92.0264 73.82 91.493 73.9533 91.1197 74.22C90.7464 74.4867 90.5597 74.86 90.5597 75.34C90.5597 75.7933 90.7197 76.1333 91.0397 76.36C91.3597 76.5867 91.893 76.78 92.6397 76.94L93.5597 77.12C94.8264 77.3733 95.733 77.7333 96.2797 78.2C96.8397 78.6667 97.1197 79.32 97.1197 80.16C97.1197 81.1333 96.753 81.8933 96.0197 82.44C95.2997 82.9733 94.2997 83.24 93.0197 83.24ZM106.816 81.76C105.869 82.7467 104.669 83.24 103.216 83.24C101.762 83.24 100.562 82.7467 99.6156 81.76C98.6823 80.7867 98.2156 79.48 98.2156 77.84C98.2156 76.2 98.6823 74.8933 99.6156 73.92C100.562 72.9333 101.762 72.44 103.216 72.44C104.669 72.44 105.869 72.9333 106.816 73.92C107.749 74.8933 108.216 76.2 108.216 77.84C108.216 79.48 107.749 80.7867 106.816 81.76ZM100.796 80.74C101.396 81.4467 102.202 81.8 103.216 81.8C104.229 81.8 105.036 81.4467 105.636 80.74C106.236 80.0467 106.536 79.08 106.536 77.84C106.536 76.5867 106.236 75.6133 105.636 74.92C105.036 74.2267 104.229 73.88 103.216 73.88C102.202 73.88 101.396 74.2267 100.796 74.92C100.196 75.6133 99.8956 76.5867 99.8956 77.84C99.8956 79.08 100.196 80.0467 100.796 80.74ZM114.882 72.44C116.029 72.44 116.922 72.7533 117.562 73.38C118.202 74.0067 118.522 74.8867 118.522 76.02V83H116.922V76.18C116.922 74.6467 116.135 73.88 114.562 73.88C113.815 73.88 113.155 74.16 112.582 74.72C112.009 75.28 111.722 76.0933 111.722 77.16V83H110.122V72.68H111.642V74.22C112.429 73.0333 113.509 72.44 114.882 72.44ZM129.363 81.7H129.943V83C129.676 83.04 129.383 83.06 129.063 83.06C127.983 83.06 127.403 82.5667 127.323 81.58C126.603 82.6867 125.483 83.24 123.963 83.24C122.829 83.24 121.936 82.98 121.283 82.46C120.643 81.9267 120.323 81.18 120.323 80.22C120.323 78.3533 121.596 77.2867 124.143 77.02L125.623 76.86C126.703 76.74 127.243 76.2667 127.243 75.44C127.243 74.8667 127.063 74.4533 126.703 74.2C126.356 73.9467 125.763 73.82 124.923 73.82C124.029 73.82 123.383 73.9733 122.983 74.28C122.596 74.5733 122.376 75.1 122.323 75.86H120.723C120.856 73.58 122.256 72.44 124.923 72.44C127.509 72.44 128.803 73.44 128.803 75.44V81.2C128.803 81.5333 128.989 81.7 129.363 81.7ZM124.043 81.88C124.896 81.88 125.643 81.62 126.283 81.1C126.923 80.5933 127.243 79.8667 127.243 78.92V77.7C126.949 77.9267 126.496 78.0733 125.883 78.14L124.383 78.32C123.516 78.4267 122.896 78.6267 122.523 78.92C122.163 79.2133 121.983 79.6333 121.983 80.18C121.983 80.7133 122.156 81.1333 122.503 81.44C122.849 81.7333 123.363 81.88 124.043 81.88ZM132.855 83H131.255V68.76H132.855V83ZM136.899 71.12H135.199V69.16H136.899V71.12ZM136.859 83H135.259V72.68H136.859V83ZM142.767 81.6H146.907V83H138.567V81.8L143.287 75.72C143.514 75.44 143.781 75.1067 144.087 74.72C144.394 74.3333 144.574 74.1067 144.627 74.04C143.961 74.0667 143.227 74.08 142.427 74.08H138.767V72.68H146.627V73.88L141.907 79.96C141.681 80.24 141.414 80.5733 141.107 80.96C140.801 81.3467 140.621 81.5733 140.567 81.64C141.234 81.6133 141.967 81.6 142.767 81.6ZM157.013 77.84V78.4H149.173C149.253 79.52 149.566 80.3667 150.113 80.94C150.659 81.5 151.406 81.78 152.353 81.78C153.779 81.78 154.693 81.14 155.093 79.86H156.753C156.473 80.9 155.953 81.7267 155.193 82.34C154.433 82.94 153.473 83.24 152.313 83.24C150.886 83.24 149.733 82.7533 148.853 81.78C147.959 80.8067 147.513 79.4933 147.513 77.84C147.513 76.2133 147.953 74.9067 148.833 73.92C149.699 72.9333 150.846 72.44 152.273 72.44C153.753 72.44 154.913 72.9533 155.753 73.98C156.593 75.0067 157.013 76.2933 157.013 77.84ZM152.273 73.9C151.433 73.9 150.746 74.1667 150.213 74.7C149.679 75.22 149.346 75.9733 149.213 76.96H155.293C155.213 76.0533 154.906 75.32 154.373 74.76C153.839 74.1867 153.139 73.9 152.273 73.9ZM166.671 74.16V68.76H168.271V83H166.751V81.4C165.924 82.6267 164.744 83.24 163.211 83.24C161.758 83.24 160.598 82.7467 159.731 81.76C158.851 80.7733 158.411 79.4667 158.411 77.84C158.411 76.1867 158.851 74.8733 159.731 73.9C160.584 72.9267 161.744 72.44 163.211 72.44C164.691 72.44 165.844 73.0133 166.671 74.16ZM160.091 77.92C160.091 79.1467 160.391 80.1 160.991 80.78C161.591 81.46 162.398 81.8 163.411 81.8C164.424 81.8 165.231 81.4467 165.831 80.74C166.431 80.0467 166.731 79.08 166.731 77.84C166.731 76.6133 166.431 75.6467 165.831 74.94C165.231 74.2333 164.424 73.88 163.411 73.88C162.411 73.88 161.604 74.2467 160.991 74.98C160.391 75.7 160.091 76.68 160.091 77.92ZM176.257 83H174.577V68.76H176.257V83ZM183.515 72.44C184.661 72.44 185.555 72.7533 186.195 73.38C186.835 74.0067 187.155 74.8867 187.155 76.02V83H185.555V76.18C185.555 74.6467 184.768 73.88 183.195 73.88C182.448 73.88 181.788 74.16 181.215 74.72C180.641 75.28 180.355 76.0933 180.355 77.16V83H178.755V72.68H180.275V74.22C181.061 73.0333 182.141 72.44 183.515 72.44ZM193.195 83.24C190.435 83.24 188.975 82.0667 188.815 79.72H190.435C190.529 80.4933 190.782 81.0467 191.195 81.38C191.622 81.7 192.289 81.86 193.195 81.86C194.849 81.86 195.675 81.3267 195.675 80.26C195.675 79.7933 195.502 79.44 195.155 79.2C194.822 78.96 194.209 78.7533 193.315 78.58L192.355 78.4C190.209 78 189.135 76.9867 189.135 75.36C189.135 74.4667 189.469 73.76 190.135 73.24C190.815 72.7067 191.735 72.44 192.895 72.44C195.629 72.44 197.029 73.58 197.095 75.86H195.495C195.455 75.1133 195.229 74.5867 194.815 74.28C194.402 73.9733 193.762 73.82 192.895 73.82C192.202 73.82 191.669 73.9533 191.295 74.22C190.922 74.4867 190.735 74.86 190.735 75.34C190.735 75.7933 190.895 76.1333 191.215 76.36C191.535 76.5867 192.069 76.78 192.815 76.94L193.735 77.12C195.002 77.3733 195.909 77.7333 196.455 78.2C197.015 78.6667 197.295 79.32 197.295 80.16C197.295 81.1333 196.929 81.8933 196.195 82.44C195.475 82.9733 194.475 83.24 193.195 83.24ZM200.531 71.12H198.831V69.16H200.531V71.12ZM200.491 83H198.891V72.68H200.491V83ZM210.735 74.18V72.68H212.255V82.6C212.255 84.0133 211.842 85.1267 211.015 85.94C210.189 86.7533 209.002 87.16 207.455 87.16C206.175 87.16 205.149 86.8667 204.375 86.28C203.602 85.6933 203.162 84.88 203.055 83.84H204.655C204.855 85.1467 205.789 85.8 207.455 85.8C209.589 85.8 210.655 84.7333 210.655 82.6V81.6C209.842 82.6933 208.689 83.24 207.195 83.24C205.742 83.24 204.582 82.7467 203.715 81.76C202.835 80.7733 202.395 79.4667 202.395 77.84C202.395 76.1867 202.835 74.8733 203.715 73.9C204.569 72.9267 205.729 72.44 207.195 72.44C208.729 72.44 209.909 73.02 210.735 74.18ZM207.395 81.8C208.409 81.8 209.215 81.4467 209.815 80.74C210.415 80.0333 210.715 79.0667 210.715 77.84C210.715 76.6133 210.415 75.6467 209.815 74.94C209.215 74.2333 208.409 73.88 207.395 73.88C206.395 73.88 205.589 74.24 204.975 74.96C204.375 75.68 204.075 76.64 204.075 77.84C204.075 79.04 204.375 80 204.975 80.72C205.589 81.44 206.395 81.8 207.395 81.8ZM219.413 72.44C220.56 72.44 221.453 72.7533 222.093 73.38C222.733 74.0067 223.053 74.8867 223.053 76.02V83H221.453V76.18C221.453 74.6467 220.666 73.88 219.093 73.88C218.346 73.88 217.686 74.16 217.113 74.72C216.54 75.28 216.253 76.0933 216.253 77.16V83H214.653V68.76H216.253V74.1C217.04 72.9933 218.093 72.44 219.413 72.44ZM229.583 72.68V74.08H227.463V80.78C227.463 81.3667 227.857 81.66 228.643 81.66H229.583V83C229.143 83.04 228.763 83.06 228.443 83.06C226.723 83.06 225.863 82.3467 225.863 80.92V74.08H224.163V72.68H225.863V69.76H227.463V72.68H229.583ZM234.817 83.24C232.057 83.24 230.597 82.0667 230.437 79.72H232.057C232.15 80.4933 232.403 81.0467 232.817 81.38C233.243 81.7 233.91 81.86 234.817 81.86C236.47 81.86 237.297 81.3267 237.297 80.26C237.297 79.7933 237.123 79.44 236.777 79.2C236.443 78.96 235.83 78.7533 234.937 78.58L233.977 78.4C231.83 78 230.757 76.9867 230.757 75.36C230.757 74.4667 231.09 73.76 231.757 73.24C232.437 72.7067 233.357 72.44 234.517 72.44C237.25 72.44 238.65 73.58 238.717 75.86H237.117C237.077 75.1133 236.85 74.5867 236.437 74.28C236.023 73.9733 235.383 73.82 234.517 73.82C233.823 73.82 233.29 73.9533 232.917 74.22C232.543 74.4867 232.357 74.86 232.357 75.34C232.357 75.7933 232.517 76.1333 232.837 76.36C233.157 76.5867 233.69 76.78 234.437 76.94L235.357 77.12C236.623 77.3733 237.53 77.7333 238.077 78.2C238.637 78.6667 238.917 79.32 238.917 80.16C238.917 81.1333 238.55 81.8933 237.817 82.44C237.097 82.9733 236.097 83.24 234.817 83.24Z" fill="#E8F4F0"/>
<rect x="345.084" y="25.5934" width="81" height="55" rx="27.5" transform="rotate(12.0593 345.084 25.5934)" fill="#FD989B"/>
<rect x="345.084" y="25.5934" width="81" height="55" rx="27.5" transform="rotate(12.0593 345.084 25.5934)" stroke="#E3555A"/>
<path d="M381.792 69.7362L380.051 69.3643L379.293 64.9689L372.956 63.615L370.487 67.3211L368.766 66.9533L377.295 54.2143L379.134 54.6071L381.792 69.7362ZM373.952 62.11L373.86 62.2539L379.023 63.3571L378.983 63.1643C378.827 62.2993 378.437 59.9733 377.815 56.1863C376.36 58.466 375.072 60.4405 373.952 62.11ZM384.623 70.3411L382.98 69.9901L385.955 56.0643L387.598 56.4153L384.623 70.3411Z" fill="#E8F4F0"/>
<rect x="135.084" y="207.593" width="89" height="55" rx="27.5" transform="rotate(12.0593 135.084 207.593)" fill="url(#paint0_linear_1379_7068)"/>
<rect x="135.084" y="207.593" width="89" height="55" rx="27.5" transform="rotate(12.0593 135.084 207.593)" stroke="#042222"/>
<path d="M170.834 247.319L170.49 249.597C170.388 250.393 170.431 251.023 170.618 251.486L168.917 251.122C168.719 250.643 168.701 249.992 168.864 249.168L169.123 247.669C169.284 246.722 169.217 246.012 168.923 245.54C168.631 245.055 168.055 244.721 167.194 244.537L162.657 243.567L161.387 249.513L159.744 249.162L162.719 235.237L168.606 236.494C170.04 236.801 171.11 237.377 171.815 238.223C172.534 239.072 172.765 240.096 172.509 241.296C172.328 242.143 171.966 242.816 171.423 243.313C170.897 243.801 170.256 244.087 169.502 244.171C170.597 244.787 171.041 245.836 170.834 247.319ZM162.974 242.081L167.414 243.029C168.288 243.216 169.02 243.141 169.61 242.803C170.216 242.456 170.608 241.864 170.786 241.03C170.956 240.235 170.817 239.578 170.369 239.059C169.934 238.544 169.24 238.184 168.288 237.981L164.044 237.074L162.974 242.081ZM186.022 240.215L179.871 245.936L183.321 254.199L181.404 253.79L179.975 250.335C179.757 249.825 179.304 248.719 178.618 247.018C178.12 247.498 177.249 248.321 176.004 249.487L173.249 252.047L171.41 251.655L177.962 245.59L174.659 237.787L176.576 238.197L177.884 241.36C178.454 242.709 178.883 243.768 179.168 244.538C179.703 244.012 180.541 243.216 181.682 242.151L184.184 239.822L186.022 240.215Z" fill="#E8F4F0"/>
<defs>
<linearGradient id="paint0_linear_1379_7068" x1="179.7" y1="173.087" x2="179.7" y2="270.622" gradientUnits="userSpaceOnUse">
<stop stop-color="#042222"/>
<stop offset="1" stop-color="#BFD8B3"/>
</linearGradient>
<clipPath id="clip0_1379_7068">
<rect x="225.494" y="144" width="208" height="56" rx="8" transform="rotate(15 225.494 144)" fill="white"/>
</clipPath>
</defs>
</svg>
