<svg width="631" height="378" viewBox="0 0 631 378" fill="none" xmlns="http://www.w3.org/2000/svg">
<g clip-path="url(#clip0_2200_4176)">
<path d="M473.06 314.613C471.494 315.615 469.719 315.85 467.736 315.319C465.752 314.788 464.339 313.698 463.497 312.051C462.635 310.426 462.494 308.531 463.074 306.367C463.65 304.217 464.721 302.64 466.287 301.638C467.837 300.645 469.603 300.415 471.587 300.946C473.57 301.478 474.991 302.562 475.85 304.2C476.689 305.861 476.822 307.76 476.249 309.898C475.672 312.049 474.609 313.62 473.06 314.613ZM464.994 311.334C465.606 312.602 466.653 313.435 468.134 313.832C469.615 314.228 470.938 314.031 472.103 313.238C473.264 312.459 474.079 311.194 474.549 309.442C475.018 307.691 474.945 306.187 474.329 304.932C473.716 303.663 472.669 302.83 471.188 302.434C469.707 302.037 468.384 302.234 467.219 303.027C466.058 303.806 465.243 305.071 464.774 306.823C464.304 308.574 464.378 310.078 464.994 311.334ZM484.019 306.017L483.131 305.779C482.242 305.54 481.672 305.891 481.42 306.832L481.135 307.894L483.26 308.464L482.898 309.816L480.773 309.246L478.464 317.863L476.919 317.448L479.227 308.832L477.585 308.392L477.948 307.04L479.59 307.48L479.864 306.456C480.364 304.589 481.542 303.903 483.397 304.4C483.641 304.466 483.966 304.567 484.371 304.703L484.019 306.017ZM485.778 309.138L486.052 308.114C486.552 306.247 487.73 305.561 489.584 306.058C489.829 306.124 490.154 306.225 490.559 306.361L490.207 307.675L489.319 307.437C488.43 307.198 487.86 307.55 487.608 308.49L487.323 309.552L489.448 310.122L489.086 311.474L486.961 310.905L484.652 319.521L483.107 319.106L485.415 310.49L483.773 310.05L484.136 308.698L485.778 309.138ZM488.129 320.452L491.815 306.698L493.361 307.112L489.675 320.866L488.129 320.452ZM496.652 310.437L495.01 309.997L495.517 308.104L497.159 308.544L496.652 310.437ZM493.539 321.902L491.993 321.488L494.664 311.519L496.21 311.933L493.539 321.902ZM503.192 313.556C504.299 313.852 505.081 314.386 505.537 315.157C505.993 315.928 506.074 316.861 505.781 317.956L503.974 324.698L502.429 324.284L504.194 317.696C504.591 316.215 504.03 315.271 502.51 314.864C501.789 314.671 501.079 314.77 500.38 315.163C499.681 315.555 499.194 316.267 498.918 317.297L497.406 322.938L495.861 322.524L498.532 312.556L500 312.949L499.601 314.436C500.668 313.494 501.865 313.2 503.192 313.556ZM516.322 322.665L516.177 323.205L508.604 321.176C508.392 322.279 508.475 323.178 508.855 323.873C509.238 324.555 509.887 325.019 510.801 325.264C512.179 325.633 513.227 325.252 513.945 324.119L515.548 324.548C515.009 325.48 514.292 326.144 513.4 326.54C512.51 326.923 511.505 326.964 510.385 326.664C509.007 326.295 508.019 325.526 507.421 324.358C506.81 323.187 506.718 321.803 507.146 320.206C507.567 318.634 508.33 317.486 509.436 316.761C510.528 316.032 511.763 315.852 513.141 316.222C514.571 316.605 515.559 317.401 516.104 318.61C516.65 319.819 516.723 321.171 516.322 322.665ZM512.764 317.632C511.952 317.415 511.22 317.494 510.567 317.872C509.917 318.236 509.4 318.877 509.016 319.796L514.889 321.369C515.046 320.473 514.94 319.685 514.569 319.006C514.203 318.314 513.601 317.856 512.764 317.632ZM532.496 332.34L530.777 331.88L530.245 327.451L523.986 325.774L521.33 329.348L519.63 328.893L528.802 316.608L530.618 317.095L532.496 332.34ZM525.058 324.322L524.959 324.461L530.059 325.828L530.028 325.633C529.917 324.761 529.647 322.418 529.22 318.604C527.65 320.806 526.262 322.712 525.058 324.322ZM537.74 333.994C536.362 333.625 535.375 332.85 534.781 331.669C534.186 330.488 534.099 329.112 534.52 327.541C534.948 325.944 535.713 324.789 536.815 324.077C537.891 323.357 539.131 323.186 540.535 323.562C541.72 323.879 542.606 324.462 543.193 325.309C543.78 326.157 544.001 327.162 543.856 328.324L542.252 327.894C542.326 327.154 542.164 326.524 541.765 326.003C541.379 325.486 540.845 325.136 540.162 324.953C539.248 324.708 538.43 324.848 537.71 325.372C536.993 325.884 536.471 326.752 536.143 327.975C535.819 329.186 535.837 330.199 536.199 331.013C536.573 331.831 537.211 332.361 538.112 332.603C538.795 332.786 539.441 332.745 540.05 332.48C540.659 332.216 541.117 331.745 541.423 331.067L543.007 331.492C542.539 332.567 541.824 333.328 540.863 333.775C539.914 334.224 538.873 334.297 537.74 333.994ZM547.814 336.693C546.436 336.324 545.45 335.549 544.855 334.368C544.26 333.187 544.173 331.811 544.594 330.24C545.022 328.643 545.787 327.488 546.889 326.776C547.965 326.057 549.205 325.885 550.609 326.261C551.794 326.579 552.68 327.161 553.267 328.009C553.855 328.856 554.076 329.861 553.93 331.023L552.327 330.593C552.4 329.854 552.238 329.224 551.839 328.703C551.453 328.185 550.919 327.835 550.237 327.652C549.322 327.407 548.505 327.547 547.784 328.072C547.067 328.584 546.545 329.451 546.217 330.675C545.893 331.885 545.911 332.898 546.273 333.713C546.647 334.531 547.285 335.061 548.187 335.302C548.869 335.485 549.515 335.444 550.124 335.18C550.734 334.915 551.191 334.444 551.497 333.767L553.081 334.191C552.613 335.267 551.899 336.028 550.937 336.474C549.988 336.924 548.947 336.997 547.814 336.693ZM563.845 335.398L563.7 335.939L556.127 333.91C555.915 335.013 555.998 335.911 556.378 336.607C556.761 337.289 557.41 337.753 558.324 337.998C559.702 338.367 560.75 337.985 561.468 336.852L563.071 337.282C562.531 338.214 561.815 338.878 560.922 339.274C560.033 339.657 559.028 339.698 557.908 339.398C556.53 339.029 555.541 338.26 554.943 337.092C554.332 335.921 554.241 334.536 554.669 332.939C555.09 331.368 555.853 330.22 556.958 329.495C558.051 328.766 559.286 328.586 560.664 328.955C562.094 329.338 563.081 330.135 563.627 331.344C564.173 332.553 564.245 333.904 563.845 335.398ZM560.286 330.366C559.475 330.148 558.743 330.228 558.089 330.605C557.44 330.969 556.923 331.611 556.539 332.529L562.411 334.103C562.569 333.207 562.462 332.419 562.092 331.74C561.725 331.048 561.123 330.59 560.286 330.366ZM567.703 342.022C565.037 341.308 563.93 339.797 564.383 337.489L565.948 337.908C565.838 338.679 565.939 339.279 566.252 339.708C566.582 340.128 567.184 340.455 568.06 340.689C569.657 341.117 570.594 340.816 570.87 339.786C570.99 339.335 570.914 338.949 570.642 338.627C570.382 338.309 569.843 337.951 569.025 337.552L568.144 337.13C566.174 336.188 565.4 334.931 565.821 333.36C566.052 332.497 566.557 331.901 567.335 331.571C568.13 331.232 569.088 331.213 570.208 331.513C572.848 332.22 573.906 333.684 573.38 335.903L571.835 335.489C571.989 334.758 571.907 334.19 571.587 333.787C571.267 333.384 570.688 333.07 569.851 332.846C569.181 332.666 568.632 332.657 568.202 332.818C567.772 332.979 567.496 333.291 567.371 333.755C567.254 334.193 567.321 334.563 567.571 334.864C567.821 335.166 568.287 335.491 568.966 335.839L569.808 336.251C570.966 336.823 571.749 337.406 572.156 337.998C572.576 338.594 572.678 339.297 572.46 340.108C572.208 341.049 571.657 341.688 570.808 342.026C569.974 342.355 568.939 342.354 567.703 342.022ZM576.909 344.489C574.243 343.775 573.137 342.264 573.59 339.956L575.154 340.375C575.044 341.146 575.146 341.746 575.459 342.175C575.788 342.595 576.391 342.922 577.266 343.156C578.863 343.584 579.8 343.283 580.076 342.253C580.197 341.802 580.121 341.416 579.848 341.094C579.588 340.776 579.049 340.418 578.231 340.019L577.351 339.597C575.381 338.655 574.606 337.398 575.027 335.827C575.258 334.964 575.763 334.368 576.542 334.038C577.337 333.699 578.294 333.679 579.415 333.98C582.055 334.687 583.112 336.151 582.587 338.37L581.041 337.956C581.196 337.224 581.113 336.657 580.793 336.254C580.473 335.851 579.895 335.537 579.058 335.313C578.388 335.133 577.838 335.124 577.409 335.285C576.979 335.446 576.702 335.758 576.578 336.222C576.46 336.66 576.527 337.029 576.777 337.331C577.028 337.633 577.493 337.958 578.173 338.306L579.015 338.718C580.173 339.29 580.955 339.872 581.363 340.465C581.783 341.06 581.884 341.764 581.667 342.575C581.415 343.516 580.864 344.155 580.014 344.493C579.181 344.822 578.146 344.821 576.909 344.489Z" fill="#E3555A"/>
</g>
<rect x="431.588" y="268.55" width="205" height="55" rx="27.5" transform="rotate(15 431.588 268.55)" stroke="#E3555A"/>
<rect x="1.20645" y="330.121" width="123" height="55" rx="27.5" transform="rotate(-30 1.20645 330.121)" stroke="#042222"/>
<path d="M43.9682 341.666L45.2395 343.588C45.6972 344.248 46.1506 344.686 46.5998 344.904L45.0929 345.774C44.6255 345.552 44.1761 345.08 43.7445 344.359L42.9326 343.073C42.4179 342.261 41.8932 341.779 41.3583 341.626C40.8168 341.461 40.165 341.599 39.4029 342.039L35.3845 344.359L38.4245 349.624L36.9696 350.464L29.8496 338.132L35.0631 335.122C36.3332 334.389 37.5136 334.1 38.6041 334.256C39.7062 334.404 40.564 335.01 41.1773 336.072C41.6106 336.823 41.7925 337.565 41.723 338.298C41.6584 339.012 41.3743 339.654 40.8708 340.222C42.0967 339.945 43.1292 340.426 43.9682 341.666ZM34.6245 343.043L38.5563 340.773C39.3299 340.326 39.8228 339.78 40.0349 339.134C40.2519 338.47 40.1471 337.768 39.7204 337.029C39.3137 336.325 38.7704 335.93 38.0903 335.846C37.4217 335.754 36.666 335.952 35.8231 336.439L32.0645 338.609L34.6245 343.043ZM50.4867 326.217L49.7525 334.586L57.8492 338.41L56.1518 339.39L52.7758 337.782C52.272 337.55 51.1955 337.032 49.5464 336.229C49.4982 336.919 49.4027 338.113 49.2597 339.812L48.9291 343.56L47.301 344.5L48.1024 335.608L40.4235 332.027L42.1209 331.047L45.211 332.52C46.5384 333.139 47.566 333.639 48.2938 334.019C48.3384 333.27 48.4275 332.117 48.5612 330.562L48.8586 327.157L50.4867 326.217ZM67.2081 333.376C65.6031 334.302 64.1402 334.662 62.8196 334.455C61.4989 334.247 60.4161 333.425 59.5713 331.988L61.0781 331.118C62.2795 333.119 64.0695 333.433 66.4481 332.059C67.4527 331.479 68.1073 330.84 68.4118 330.14C68.7278 329.435 68.6692 328.706 68.2358 327.956C67.8958 327.367 67.4073 327.041 66.7703 326.977C66.1382 326.896 65.1979 327.054 63.9494 327.451L62.7182 327.839C61.3044 328.27 60.1291 328.395 59.1923 328.212C58.2487 328.018 57.4903 327.424 56.917 326.431C56.3503 325.449 56.2813 324.45 56.7101 323.433C57.1322 322.404 57.9841 321.519 59.2658 320.779C60.1319 320.279 60.9424 319.95 61.6975 319.791C62.4641 319.626 63.1364 319.63 63.7144 319.804C64.2857 319.967 64.7788 320.221 65.1938 320.567C65.6203 320.906 65.9927 321.337 66.3109 321.862L64.8214 322.722C64.2454 321.884 63.5868 321.41 62.8454 321.299C62.1088 321.17 61.169 321.436 60.0258 322.096C59.1598 322.596 58.5868 323.15 58.3067 323.758C58.0381 324.359 58.0772 324.96 58.4238 325.561C58.7705 326.161 59.2426 326.512 59.8401 326.614C60.426 326.722 61.3581 326.576 62.6364 326.177L63.8676 325.79C65.4034 325.303 66.6349 325.17 67.562 325.389C68.4825 325.596 69.2094 326.162 69.7427 327.086C70.3894 328.206 70.4895 329.326 70.043 330.446C69.5964 331.566 68.6515 332.542 67.2081 333.376ZM79.8916 324.182L80.3939 323.892L81.0439 325.018C80.833 325.186 80.5889 325.35 80.3118 325.51C79.3765 326.05 78.6275 325.913 78.0649 325.098C77.9947 326.417 77.3014 327.456 75.9851 328.216C75.0036 328.783 74.0999 329.004 73.2741 328.88C72.4532 328.739 71.8028 328.252 71.3228 327.421C70.3894 325.804 70.9588 324.244 73.031 322.739L74.2327 321.861C75.108 321.217 75.339 320.537 74.9256 319.821C74.639 319.324 74.2764 319.056 73.838 319.017C73.4111 318.971 72.8339 319.158 72.1065 319.578C71.3328 320.025 70.8495 320.481 70.6564 320.946C70.4682 321.394 70.541 321.96 70.8748 322.645L69.4892 323.445C68.4646 321.403 69.1071 319.716 71.4165 318.383C73.6566 317.09 75.2766 317.309 76.2766 319.041L79.1566 324.029C79.3233 324.318 79.5683 324.369 79.8916 324.182ZM75.3744 326.998C76.1134 326.572 76.63 325.973 76.9243 325.203C77.2252 324.444 77.139 323.655 76.6656 322.835L76.0556 321.778C75.9149 322.121 75.5957 322.475 75.0979 322.839L73.8888 323.745C73.1916 324.271 72.7547 324.754 72.578 325.195C72.4129 325.629 72.467 326.083 72.7404 326.556C73.007 327.018 73.3671 327.295 73.8207 327.387C74.2676 327.468 74.7855 327.338 75.3744 326.998ZM79.5568 311.004L78.76 311.464C77.9633 311.924 77.8082 312.576 78.2949 313.419L78.8449 314.371L80.7502 313.271L81.4502 314.484L79.5449 315.584L84.0049 323.309L82.6193 324.109L78.1593 316.384L76.687 317.234L75.987 316.021L77.4593 315.171L76.9293 314.253C75.9626 312.579 76.3107 311.262 77.9734 310.302C78.1928 310.175 78.4939 310.017 78.8768 309.826L79.5568 311.004ZM91.9952 312.737L92.2752 313.222L85.4855 317.142C86.1148 318.072 86.8095 318.649 87.5696 318.872C88.323 319.083 89.1096 318.953 89.9295 318.479C91.165 317.766 91.636 316.755 91.3424 315.447L92.78 314.617C93.0575 315.657 93.0205 316.633 92.669 317.544C92.3108 318.444 91.6294 319.184 90.6248 319.764C89.3893 320.477 88.1472 320.632 86.8984 320.229C85.6381 319.833 84.5946 318.919 83.7679 317.487C82.9546 316.078 82.6823 314.727 82.9511 313.432C83.2083 312.145 83.9547 311.144 85.1902 310.431C86.4719 309.691 87.7332 309.555 88.974 310.024C90.2148 310.493 91.2218 311.398 91.9952 312.737ZM85.9202 311.695C85.1927 312.115 84.7314 312.689 84.5362 313.418C84.3343 314.135 84.4223 314.954 84.8002 315.875L90.0656 312.835C89.543 312.09 88.9107 311.608 88.1688 311.39C87.4203 311.16 86.6708 311.262 85.9202 311.695ZM94.4493 305.362L95.1493 306.574L93.3134 307.634L96.6634 313.437C96.9567 313.945 97.444 314.002 98.1253 313.609L98.9393 313.139L99.6093 314.299C99.2483 314.554 98.9292 314.761 98.6521 314.921C97.1625 315.781 96.0611 315.594 95.3477 314.358L91.9277 308.434L90.4555 309.284L89.7555 308.072L91.2277 307.222L89.7677 304.693L91.1534 303.893L92.6134 306.422L94.4493 305.362ZM102.453 305.683L101.578 301.247L103.084 300.377L105.279 312.897C105.446 313.801 105.386 314.536 105.097 315.103C104.815 315.681 104.299 316.187 103.549 316.621C103.295 316.767 103.008 316.91 102.687 317.049L102.017 315.888L102.831 315.418C103.628 314.958 103.958 314.275 103.82 313.37L103.651 312.358L94.9611 305.067L96.4853 304.187L99.8997 307.18C101.11 308.237 102.281 309.278 103.411 310.303C103.126 309.036 102.807 307.496 102.453 305.683Z" fill="#042222"/>
<g clip-path="url(#clip1_2200_4176)">
<rect x="0.750488" y="218.789" width="285" height="56" rx="28" transform="rotate(-16.8103 0.750488 218.789)" fill="#66B29B"/>
<path d="M48.1283 242.417C46.3541 242.953 44.8478 242.969 43.6093 242.466C42.3708 241.962 41.5042 240.915 41.0094 239.323L42.6751 238.82C43.3882 241.042 45.0594 241.756 47.6887 240.962C48.7991 240.626 49.5823 240.153 50.0384 239.541C50.5071 238.926 50.6162 238.204 50.3656 237.374C50.1689 236.723 49.7677 236.294 49.1619 236.087C48.5651 235.864 47.6135 235.803 46.3073 235.905L45.0201 236.001C43.5453 236.099 42.3726 235.952 41.5021 235.56C40.6278 235.156 40.0248 234.404 39.6932 233.307C39.3655 232.222 39.5264 231.233 40.176 230.34C40.8217 229.435 41.8529 228.768 43.2697 228.34C44.227 228.051 45.0913 227.915 45.8627 227.933C46.6469 227.947 47.3004 228.104 47.8233 228.406C48.3424 228.695 48.7645 229.055 49.0898 229.486C49.4277 229.913 49.6918 230.418 49.882 231.002L48.2355 231.499C47.8658 230.552 47.3327 229.94 46.6362 229.663C45.9485 229.37 44.9729 229.414 43.7093 229.795C42.752 230.084 42.0676 230.493 41.6562 231.021C41.2574 231.546 41.1583 232.14 41.3589 232.804C41.5594 233.467 41.9389 233.917 42.4975 234.152C43.0432 234.391 43.984 234.462 45.3196 234.365L46.6068 234.268C48.2131 234.145 49.4426 234.296 50.2953 234.721C51.1441 235.133 51.7227 235.85 52.0312 236.871C52.4052 238.109 52.2471 239.222 51.5569 240.211C50.8666 241.199 49.7237 241.935 48.1283 242.417ZM62.1816 232.446L62.3435 232.982L54.8386 235.25C55.2391 236.299 55.7839 237.019 56.473 237.409C57.1582 237.787 57.954 237.839 58.8602 237.566C60.2259 237.153 60.9151 236.276 60.9278 234.935L62.5169 234.455C62.5496 235.532 62.2909 236.473 61.7408 237.28C61.1868 238.075 60.3546 238.639 59.2441 238.975C57.8784 239.387 56.6336 239.255 55.5098 238.578C54.3731 237.904 53.5657 236.776 53.0876 235.194C52.6171 233.637 52.6604 232.259 53.2175 231.06C53.7617 229.864 54.7167 229.06 56.0824 228.648C57.4992 228.22 58.7581 228.376 59.8591 229.116C60.9601 229.856 61.7343 230.966 62.1816 232.446ZM56.5047 230.045C55.7006 230.288 55.1204 230.742 54.7641 231.407C54.4039 232.059 54.3027 232.877 54.4604 233.86L60.2806 232.101C59.9418 231.257 59.4362 230.643 58.7637 230.261C58.0873 229.867 57.3343 229.795 56.5047 230.045ZM69.6577 235.829C68.292 236.241 67.0453 236.103 65.9175 235.413C64.7898 234.723 63.9907 233.599 63.5203 232.042C63.0421 230.459 63.0835 229.075 63.6444 227.888C64.1798 226.71 65.1431 225.911 66.5343 225.49C67.7086 225.135 68.7686 225.163 69.7145 225.574C70.6603 225.985 71.3776 226.722 71.8662 227.786L70.2771 228.266C69.9502 227.599 69.48 227.149 68.8665 226.917C68.2658 226.68 67.6272 226.664 66.9508 226.869C66.0445 227.142 65.4237 227.692 65.0881 228.518C64.7487 229.331 64.7622 230.343 65.1285 231.556C65.4909 232.756 66.0405 233.607 66.7771 234.108C67.5264 234.606 68.3478 234.72 69.2413 234.45C69.9177 234.246 70.4451 233.871 70.8233 233.325C71.2016 232.779 71.3421 232.137 71.2449 231.4L72.8148 230.926C72.9843 232.087 72.7782 233.11 72.1962 233.996C71.6271 234.879 70.7809 235.489 69.6577 235.829ZM80.689 227.565L79 221.975L80.5317 221.512L83.5162 231.391L82.0612 231.831L81.6158 230.357C81.206 231.72 80.3437 232.6 79.0291 232.997C77.9314 233.329 76.9856 233.288 76.1917 232.873C75.3978 232.458 74.837 231.708 74.5093 230.623L72.4906 223.941L74.0222 223.479L75.9946 230.007C76.4381 231.475 77.4128 231.981 78.9189 231.526C79.6337 231.311 80.1845 230.852 80.5714 230.15C80.9583 229.448 80.9975 228.586 80.689 227.565ZM87.4167 219.265C87.672 219.188 87.8463 219.142 87.9395 219.128L88.3848 220.602L88.0019 220.718C86.9808 221.026 86.2602 221.523 85.8401 222.207C85.4289 222.874 85.364 223.674 85.6455 224.605L87.3461 230.234L85.8144 230.697L82.8298 220.818L84.2849 220.378L84.8112 222.12C85.0932 220.656 85.9617 219.704 87.4167 219.265ZM98.9392 221.341L99.1011 221.877L91.5961 224.145C91.9966 225.194 92.5414 225.914 93.2306 226.304C93.9158 226.682 94.7115 226.734 95.6178 226.461C96.9835 226.048 97.6727 225.171 97.6854 223.83L99.2745 223.35C99.3072 224.427 99.0485 225.368 98.4984 226.175C97.9444 226.97 97.1121 227.534 96.0017 227.87C94.636 228.282 93.3912 228.15 92.2673 227.473C91.1307 226.799 90.3233 225.671 89.8451 224.089C89.3747 222.532 89.418 221.154 89.975 219.955C90.5193 218.759 91.4743 217.955 92.84 217.543C94.2568 217.115 95.5157 217.271 96.6167 218.011C97.7177 218.751 98.4919 219.861 98.9392 221.341ZM93.2622 218.94C92.4581 219.183 91.8779 219.637 91.5216 220.302C91.1615 220.954 91.0603 221.772 91.218 222.755L97.0382 220.996C96.6994 220.152 96.1937 219.538 95.5212 219.156C94.8449 218.762 94.0919 218.69 93.2622 218.94ZM113.237 211.381C114.309 211.057 115.233 211.119 116.009 211.567C116.794 211.998 117.342 212.731 117.655 213.765L119.679 220.466L118.148 220.928L116.169 214.381C115.73 212.926 114.821 212.406 113.442 212.823C112.715 213.043 112.197 213.519 111.89 214.253C111.591 214.97 111.602 215.858 111.922 216.918L113.553 222.317L112.021 222.779L110.043 216.232C109.603 214.777 108.694 214.257 107.316 214.674C106.601 214.89 106.09 215.365 105.782 216.098C105.471 216.819 105.475 217.709 105.795 218.769L107.426 224.168L105.895 224.63L102.91 214.751L104.365 214.312L104.805 215.767C105.116 214.447 105.897 213.598 107.148 213.22C108.629 212.773 109.831 213.085 110.753 214.158C111.069 212.711 111.896 211.786 113.237 211.381ZM129.097 212.23L129.259 212.766L121.754 215.034C122.154 216.083 122.699 216.803 123.388 217.193C124.073 217.571 124.869 217.623 125.775 217.35C127.141 216.937 127.83 216.06 127.843 214.719L129.432 214.239C129.465 215.316 129.206 216.257 128.656 217.064C128.102 217.858 127.27 218.423 126.159 218.759C124.794 219.171 123.549 219.039 122.425 218.362C121.288 217.688 120.481 216.56 120.003 214.978C119.532 213.421 119.576 212.042 120.133 210.843C120.677 209.648 121.632 208.844 122.998 208.432C124.414 208.004 125.673 208.16 126.774 208.9C127.875 209.639 128.65 210.75 129.097 212.23ZM123.42 209.829C122.616 210.072 122.036 210.526 121.679 211.191C121.319 211.843 121.218 212.661 121.376 213.644L127.196 211.885C126.857 211.04 126.351 210.427 125.679 210.045C125.003 209.651 124.25 209.579 123.42 209.829ZM137.278 205.914L135.717 200.745L137.248 200.282L141.366 213.914L139.911 214.353L139.449 212.822C139.012 214.235 138.06 215.163 136.592 215.607C135.201 216.027 133.948 215.89 132.833 215.197C131.705 214.507 130.906 213.383 130.435 211.826C129.957 210.243 129.999 208.859 130.56 207.672C131.095 206.494 132.065 205.693 133.469 205.268C134.885 204.84 136.155 205.056 137.278 205.914ZM132.067 211.417C132.422 212.591 132.984 213.417 133.756 213.894C134.527 214.371 135.397 214.464 136.367 214.171C137.337 213.877 138.007 213.306 138.377 212.456C138.751 211.619 138.759 210.607 138.4 209.42C138.045 208.245 137.478 207.407 136.7 206.904C135.921 206.401 135.047 206.296 134.077 206.589C133.119 206.878 132.453 207.462 132.078 208.342C131.712 209.205 131.708 210.23 132.067 211.417ZM141.796 201.374L140.169 201.865L139.602 199.989L141.229 199.497L141.796 201.374ZM145.193 212.758L143.662 213.22L140.677 203.341L142.209 202.879L145.193 212.758ZM151.661 211.054C150.295 211.467 149.049 211.328 147.921 210.638C146.793 209.948 145.994 208.825 145.524 207.267C145.046 205.685 145.087 204.3 145.648 203.114C146.183 201.936 147.146 201.136 148.538 200.716C149.712 200.361 150.772 200.389 151.718 200.8C152.664 201.21 153.381 201.948 153.87 203.012L152.281 203.492C151.954 202.825 151.483 202.375 150.87 202.142C150.269 201.906 149.631 201.89 148.954 202.094C148.048 202.368 147.427 202.918 147.092 203.743C146.752 204.556 146.766 205.569 147.132 206.782C147.494 207.981 148.044 208.832 148.78 209.334C149.53 209.832 150.351 209.946 151.245 209.676C151.921 209.471 152.448 209.096 152.827 208.55C153.205 208.004 153.345 207.363 153.248 206.626L154.818 206.152C154.988 207.312 154.782 208.336 154.2 209.222C153.63 210.104 152.784 210.715 151.661 211.054ZM165.182 205.361L165.737 205.193L166.113 206.437C165.869 206.553 165.594 206.657 165.288 206.749C164.254 207.062 163.556 206.757 163.194 205.836C162.825 207.103 161.913 207.957 160.458 208.397C159.373 208.724 158.443 208.734 157.667 208.425C156.9 208.1 156.378 207.477 156.1 206.558C155.56 204.771 156.471 203.382 158.832 202.39L160.202 201.809C161.201 201.382 161.581 200.773 161.342 199.981C161.176 199.432 160.884 199.089 160.467 198.95C160.061 198.808 159.457 198.859 158.653 199.101C157.798 199.36 157.223 199.694 156.929 200.103C156.643 200.496 156.585 201.063 156.754 201.806L155.222 202.269C154.69 200.048 155.701 198.552 158.254 197.78C160.73 197.032 162.257 197.616 162.835 199.53L164.501 205.044C164.598 205.363 164.825 205.469 165.182 205.361ZM160.141 207.072C160.958 206.825 161.598 206.36 162.06 205.677C162.526 205.007 162.622 204.219 162.349 203.313L161.996 202.145C161.781 202.447 161.389 202.718 160.821 202.959L159.437 203.565C158.638 203.918 158.103 204.289 157.83 204.678C157.57 205.063 157.52 205.517 157.678 206.04C157.832 206.551 158.119 206.902 158.54 207.096C158.957 207.276 159.49 207.268 160.141 207.072ZM168.431 194.956L168.836 196.297L166.806 196.91L168.744 203.323C168.914 203.885 169.375 204.052 170.128 203.825L171.028 203.553L171.416 204.835C171.006 205.001 170.648 205.13 170.342 205.223C168.695 205.72 167.666 205.286 167.253 203.92L165.275 197.372L163.647 197.864L163.243 196.524L164.87 196.032L164.025 193.237L165.557 192.774L166.402 195.57L168.431 194.956ZM171.168 192.5L169.541 192.991L168.974 191.115L170.602 190.624L171.168 192.5ZM174.566 203.884L173.034 204.346L170.05 194.467L171.581 194.005L174.566 203.884ZM184.262 199.659C183.641 200.877 182.635 201.697 181.244 202.117C179.853 202.537 178.561 202.412 177.37 201.741C176.195 201.079 175.37 199.964 174.896 198.394C174.422 196.824 174.491 195.438 175.103 194.236C175.723 193.018 176.729 192.199 178.121 191.778C179.512 191.358 180.803 191.483 181.995 192.154C183.17 192.816 183.994 193.932 184.469 195.502C184.943 197.071 184.874 198.457 184.262 199.659ZM178.205 200.424C178.983 200.926 179.858 201.031 180.828 200.738C181.798 200.445 182.468 199.874 182.838 199.024C183.212 198.187 183.219 197.174 182.861 195.987C182.498 194.788 181.929 193.943 181.155 193.452C180.38 192.962 179.507 192.864 178.537 193.157C177.567 193.45 176.895 194.015 176.521 194.852C176.148 195.689 176.142 196.708 176.504 197.908C176.863 199.095 177.43 199.933 178.205 200.424ZM189.288 188.404C190.386 188.073 191.332 188.114 192.126 188.529C192.92 188.944 193.48 189.694 193.808 190.779L195.827 197.46L194.295 197.923L192.323 191.395C191.879 189.927 190.905 189.42 189.399 189.875C188.684 190.091 188.133 190.55 187.746 191.252C187.359 191.954 187.32 192.816 187.629 193.837L189.317 199.427L187.786 199.89L184.801 190.011L186.256 189.571L186.702 191.045C187.112 189.682 187.974 188.802 189.288 188.404ZM203.561 184.093C204.952 183.672 206.209 183.801 207.333 184.478C208.448 185.172 209.243 186.304 209.717 187.874C210.188 189.431 210.151 190.807 209.607 192.002C209.049 193.201 208.075 194.011 206.684 194.431C205.267 194.859 203.997 194.644 202.875 193.785L204.436 198.954L202.905 199.417L198.786 185.786L200.241 185.346L200.704 186.878C201.141 185.464 202.093 184.536 203.561 184.093ZM206.076 193.11C207.033 192.821 207.695 192.245 208.061 191.382C208.436 190.503 208.445 189.47 208.086 188.283C207.735 187.121 207.174 186.302 206.403 185.825C205.641 185.33 204.768 185.232 203.786 185.529C202.816 185.822 202.144 186.387 201.77 187.224C201.396 188.062 201.39 189.08 201.753 190.28C202.111 191.467 202.678 192.305 203.453 192.796C204.232 193.299 205.106 193.403 206.076 193.11ZM214.629 180.832C214.884 180.755 215.058 180.71 215.151 180.695L215.597 182.17L215.214 182.285C214.193 182.594 213.472 183.09 213.052 183.774C212.641 184.441 212.576 185.241 212.857 186.173L214.558 191.802L213.026 192.264L210.042 182.385L211.497 181.946L212.023 183.688C212.305 182.224 213.174 181.272 214.629 180.832ZM226.423 186.922C225.802 188.14 224.796 188.959 223.405 189.379C222.014 189.8 220.722 189.675 219.531 189.004C218.356 188.342 217.531 187.226 217.057 185.656C216.583 184.086 216.652 182.7 217.263 181.499C217.884 180.281 218.89 179.461 220.282 179.041C221.673 178.621 222.964 178.746 224.156 179.417C225.331 180.078 226.155 181.194 226.63 182.764C227.104 184.334 227.035 185.72 226.423 186.922ZM220.365 187.686C221.144 188.189 222.019 188.294 222.989 188.001C223.959 187.708 224.629 187.136 224.999 186.286C225.372 185.449 225.38 184.437 225.021 183.25C224.659 182.05 224.09 181.205 223.315 180.715C222.541 180.225 221.668 180.126 220.698 180.419C219.728 180.712 219.056 181.278 218.682 182.115C218.308 182.952 218.303 183.971 218.665 185.17C219.024 186.357 219.591 187.196 220.365 187.686ZM227.354 177.155L227.047 176.14C226.488 174.29 227.128 173.087 228.966 172.531C229.208 172.458 229.538 172.372 229.954 172.275L230.347 173.576L229.466 173.843C228.586 174.109 228.286 174.707 228.568 175.639L228.886 176.692L230.992 176.056L231.397 177.396L229.291 178.032L231.87 186.571L230.339 187.034L227.759 178.495L226.132 178.987L225.727 177.647L227.354 177.155ZM232.015 174.117L231.448 172.241L233.075 171.749L233.642 173.626L232.015 174.117ZM237.039 185.01L235.508 185.472L232.523 175.593L234.055 175.131L237.039 185.01ZM240.864 183.854L239.332 184.317L235.214 170.685L236.746 170.223L240.864 183.854ZM250.288 175.616L250.45 176.153L242.945 178.42C243.346 179.469 243.891 180.189 244.58 180.58C245.265 180.957 246.061 181.01 246.967 180.736C248.333 180.323 249.022 179.446 249.035 178.105L250.624 177.625C250.656 178.702 250.398 179.644 249.848 180.451C249.294 181.245 248.461 181.81 247.351 182.145C245.985 182.558 244.74 182.425 243.617 181.748C242.48 181.075 241.672 179.947 241.194 178.364C240.724 176.807 240.767 175.429 241.324 174.23C241.869 173.035 242.824 172.231 244.189 171.818C245.606 171.39 246.865 171.546 247.966 172.286C249.067 173.026 249.841 174.136 250.288 175.616ZM244.611 173.216C243.807 173.459 243.227 173.912 242.871 174.577C242.511 175.229 242.409 176.047 242.567 177.03L248.387 175.272C248.049 174.427 247.543 173.813 246.87 173.432C246.194 173.037 245.441 172.965 244.611 173.216Z" fill="#E8F4F0"/>
</g>
<rect x="1.37372" y="219.123" width="284" height="55" rx="27.5" transform="rotate(-16.8103 1.37372 219.123)" stroke="#042222"/>
<rect x="153.2" y="36.5908" width="191" height="55" rx="27.5" fill="#042222"/>
<rect x="153.2" y="36.5908" width="191" height="55" rx="27.5" stroke="#042222"/>
<path d="M191.22 72.4108C189.367 72.4108 187.92 71.9908 186.88 71.1508C185.84 70.3108 185.314 69.0575 185.3 67.3908H187.04C187.08 69.7242 188.474 70.8908 191.22 70.8908C192.38 70.8908 193.267 70.6642 193.88 70.2108C194.507 69.7575 194.82 69.0975 194.82 68.2308C194.82 67.5508 194.56 67.0242 194.04 66.6508C193.534 66.2642 192.64 65.9308 191.36 65.6508L190.1 65.3708C188.66 65.0375 187.58 64.5575 186.86 63.9308C186.14 63.2908 185.78 62.3975 185.78 61.2508C185.78 60.1175 186.22 59.2175 187.1 58.5508C187.98 57.8708 189.16 57.5308 190.64 57.5308C191.64 57.5308 192.507 57.6508 193.24 57.8908C193.987 58.1308 194.567 58.4708 194.98 58.9108C195.394 59.3375 195.694 59.8042 195.88 60.3108C196.08 60.8175 196.187 61.3775 196.2 61.9908H194.48C194.4 60.9775 194.067 60.2375 193.48 59.7708C192.907 59.2908 191.96 59.0508 190.64 59.0508C189.64 59.0508 188.867 59.2442 188.32 59.6308C187.787 60.0175 187.52 60.5575 187.52 61.2508C187.52 61.9442 187.754 62.4842 188.22 62.8708C188.674 63.2575 189.554 63.5975 190.86 63.8908L192.12 64.1708C193.694 64.5175 194.827 65.0175 195.52 65.6708C196.214 66.3108 196.56 67.1642 196.56 68.2308C196.56 69.5242 196.087 70.5442 195.14 71.2908C194.194 72.0375 192.887 72.4108 191.22 72.4108ZM209.123 61.5308C210.243 61.5308 211.11 61.8575 211.723 62.5108C212.35 63.1508 212.663 64.0108 212.663 65.0908V72.0908H211.063V65.2508C211.063 63.7308 210.343 62.9708 208.903 62.9708C208.143 62.9708 207.51 63.2775 207.003 63.8908C206.51 64.4908 206.263 65.3442 206.263 66.4508V72.0908H204.663V65.2508C204.663 63.7308 203.943 62.9708 202.503 62.9708C201.757 62.9708 201.13 63.2775 200.623 63.8908C200.117 64.4908 199.863 65.3442 199.863 66.4508V72.0908H198.263V61.7708H199.783V63.2908C200.463 62.1175 201.457 61.5308 202.763 61.5308C204.31 61.5308 205.37 62.1775 205.943 63.4708C206.663 62.1775 207.723 61.5308 209.123 61.5308ZM223.5 70.7908H224.08V72.0908C223.814 72.1308 223.52 72.1508 223.2 72.1508C222.12 72.1508 221.54 71.6575 221.46 70.6708C220.74 71.7775 219.62 72.3308 218.1 72.3308C216.967 72.3308 216.074 72.0708 215.42 71.5508C214.78 71.0175 214.46 70.2708 214.46 69.3108C214.46 67.4442 215.734 66.3775 218.28 66.1108L219.76 65.9508C220.84 65.8308 221.38 65.3575 221.38 64.5308C221.38 63.9575 221.2 63.5442 220.84 63.2908C220.494 63.0375 219.9 62.9108 219.06 62.9108C218.167 62.9108 217.52 63.0642 217.12 63.3708C216.734 63.6642 216.514 64.1908 216.46 64.9508H214.86C214.994 62.6708 216.394 61.5308 219.06 61.5308C221.647 61.5308 222.94 62.5308 222.94 64.5308V70.2908C222.94 70.6242 223.127 70.7908 223.5 70.7908ZM218.18 70.9708C219.034 70.9708 219.78 70.7108 220.42 70.1908C221.06 69.6842 221.38 68.9575 221.38 68.0108V66.7908C221.087 67.0175 220.634 67.1642 220.02 67.2308L218.52 67.4108C217.654 67.5175 217.034 67.7175 216.66 68.0108C216.3 68.3042 216.12 68.7242 216.12 69.2708C216.12 69.8042 216.294 70.2242 216.64 70.5308C216.987 70.8242 217.5 70.9708 218.18 70.9708ZM230.33 61.6108C230.597 61.6108 230.777 61.6175 230.87 61.6308V63.1708H230.47C229.403 63.1708 228.57 63.4375 227.97 63.9708C227.383 64.4908 227.09 65.2375 227.09 66.2108V72.0908H225.49V61.7708H227.01V63.5908C227.703 62.2708 228.81 61.6108 230.33 61.6108ZM236.983 61.7708V63.1708H234.863V69.8708C234.863 70.4575 235.256 70.7508 236.043 70.7508H236.983V72.0908C236.543 72.1308 236.163 72.1508 235.843 72.1508C234.123 72.1508 233.263 71.4375 233.263 70.0108V63.1708H231.563V61.7708H233.263V58.8508H234.863V61.7708H236.983ZM254.902 72.0908H253.122L251.462 67.9508H244.982L243.342 72.0908H241.582L247.262 57.8508H249.142L254.902 72.0908ZM245.642 66.2708L245.582 66.4308H250.862L250.782 66.2508C250.449 65.4375 249.582 63.2442 248.182 59.6708C247.236 62.2042 246.389 64.4042 245.642 66.2708ZM260.973 61.5308C262.119 61.5308 263.013 61.8442 263.653 62.4708C264.293 63.0975 264.613 63.9775 264.613 65.1108V72.0908H263.013V65.2708C263.013 63.7375 262.226 62.9708 260.653 62.9708C259.906 62.9708 259.246 63.2508 258.673 63.8108C258.099 64.3708 257.813 65.1842 257.813 66.2508V72.0908H256.213V61.7708H257.733V63.3108C258.519 62.1242 259.599 61.5308 260.973 61.5308ZM275.453 70.7908H276.033V72.0908C275.767 72.1308 275.473 72.1508 275.153 72.1508C274.073 72.1508 273.493 71.6575 273.413 70.6708C272.693 71.7775 271.573 72.3308 270.053 72.3308C268.92 72.3308 268.027 72.0708 267.373 71.5508C266.733 71.0175 266.413 70.2708 266.413 69.3108C266.413 67.4442 267.687 66.3775 270.233 66.1108L271.713 65.9508C272.793 65.8308 273.333 65.3575 273.333 64.5308C273.333 63.9575 273.153 63.5442 272.793 63.2908C272.447 63.0375 271.853 62.9108 271.013 62.9108C270.12 62.9108 269.473 63.0642 269.073 63.3708C268.687 63.6642 268.467 64.1908 268.413 64.9508H266.813C266.947 62.6708 268.347 61.5308 271.013 61.5308C273.6 61.5308 274.893 62.5308 274.893 64.5308V70.2908C274.893 70.6242 275.08 70.7908 275.453 70.7908ZM270.133 70.9708C270.987 70.9708 271.733 70.7108 272.373 70.1908C273.013 69.6842 273.333 68.9575 273.333 68.0108V66.7908C273.04 67.0175 272.587 67.1642 271.973 67.2308L270.473 67.4108C269.607 67.5175 268.987 67.7175 268.613 68.0108C268.253 68.3042 268.073 68.7242 268.073 69.2708C268.073 69.8042 268.247 70.2242 268.593 70.5308C268.94 70.8242 269.453 70.9708 270.133 70.9708ZM278.946 72.0908H277.346V57.8508H278.946V72.0908ZM286.234 66.0508L287.694 61.7708H289.434L285.074 73.7108C284.767 74.5775 284.347 75.1842 283.814 75.5308C283.281 75.8908 282.581 76.0708 281.714 76.0708C281.421 76.0708 281.101 76.0508 280.754 76.0108V74.6708H281.694C282.614 74.6708 283.241 74.2442 283.574 73.3908L283.934 72.4308L280.054 61.7708H281.814L283.274 66.0708C283.794 67.5908 284.287 69.0775 284.754 70.5308C285.141 69.2908 285.634 67.7975 286.234 66.0508ZM294.169 72.3308C291.409 72.3308 289.949 71.1575 289.789 68.8108H291.409C291.502 69.5842 291.756 70.1375 292.169 70.4708C292.596 70.7908 293.262 70.9508 294.169 70.9508C295.822 70.9508 296.649 70.4175 296.649 69.3508C296.649 68.8842 296.476 68.5308 296.129 68.2908C295.796 68.0508 295.182 67.8442 294.289 67.6708L293.329 67.4908C291.182 67.0908 290.109 66.0775 290.109 64.4508C290.109 63.5575 290.442 62.8508 291.109 62.3308C291.789 61.7975 292.709 61.5308 293.869 61.5308C296.602 61.5308 298.002 62.6708 298.069 64.9508H296.469C296.429 64.2042 296.202 63.6775 295.789 63.3708C295.376 63.0642 294.736 62.9108 293.869 62.9108C293.176 62.9108 292.642 63.0442 292.269 63.3108C291.896 63.5775 291.709 63.9508 291.709 64.4308C291.709 64.8842 291.869 65.2242 292.189 65.4508C292.509 65.6775 293.042 65.8708 293.789 66.0308L294.709 66.2108C295.976 66.4642 296.882 66.8242 297.429 67.2908C297.989 67.7575 298.269 68.4108 298.269 69.2508C298.269 70.2242 297.902 70.9842 297.169 71.5308C296.449 72.0642 295.449 72.3308 294.169 72.3308ZM301.505 60.2108H299.805V58.2508H301.505V60.2108ZM301.465 72.0908H299.865V61.7708H301.465V72.0908ZM307.509 72.3308C304.749 72.3308 303.289 71.1575 303.129 68.8108H304.749C304.842 69.5842 305.096 70.1375 305.509 70.4708C305.936 70.7908 306.602 70.9508 307.509 70.9508C309.162 70.9508 309.989 70.4175 309.989 69.3508C309.989 68.8842 309.816 68.5308 309.469 68.2908C309.136 68.0508 308.522 67.8442 307.629 67.6708L306.669 67.4908C304.522 67.0908 303.449 66.0775 303.449 64.4508C303.449 63.5575 303.782 62.8508 304.449 62.3308C305.129 61.7975 306.049 61.5308 307.209 61.5308C309.942 61.5308 311.342 62.6708 311.409 64.9508H309.809C309.769 64.2042 309.542 63.6775 309.129 63.3708C308.716 63.0642 308.076 62.9108 307.209 62.9108C306.516 62.9108 305.982 63.0442 305.609 63.3108C305.236 63.5775 305.049 63.9508 305.049 64.4308C305.049 64.8842 305.209 65.2242 305.529 65.4508C305.849 65.6775 306.382 65.8708 307.129 66.0308L308.049 66.2108C309.316 66.4642 310.222 66.8242 310.769 67.2908C311.329 67.7575 311.609 68.4108 311.609 69.2508C311.609 70.2242 311.242 70.9842 310.509 71.5308C309.789 72.0642 308.789 72.3308 307.509 72.3308Z" fill="#E8F4F0"/>
<g clip-path="url(#clip2_2200_4176)">
<rect x="405.785" width="245" height="56" rx="28" transform="rotate(29.7465 405.785 0)" fill="#2CC295"/>
<path d="M423.901 35.4146L429.041 38.3519C430.349 39.0994 431.161 40.0165 431.477 41.103C431.804 42.1962 431.634 43.3274 430.965 44.4966C430.297 45.6658 429.409 46.3868 428.301 46.6597C427.205 46.9391 426.002 46.7051 424.694 45.9575L421.013 43.8538L418.294 48.6117L416.835 47.7782L423.901 35.4146ZM421.767 42.5341L425.448 44.6378C426.305 45.1274 427.067 45.2862 427.733 45.1142C428.418 44.9373 428.992 44.4436 429.455 43.6333C429.918 42.8229 430.048 42.0837 429.847 41.4155C429.663 40.7424 429.143 40.1611 428.286 39.6716L424.605 37.5678L421.767 42.5341ZM437.382 53.5768L437.104 54.063L430.297 50.1731C429.811 51.1852 429.663 52.0758 429.853 52.8448C430.05 53.6022 430.559 54.2158 431.381 54.6855C432.62 55.3934 433.73 55.2909 434.713 54.378L436.154 55.2016C435.395 55.9657 434.533 56.4254 433.569 56.5808C432.612 56.7247 431.629 56.5088 430.622 55.9333C429.383 55.2254 428.624 54.2306 428.342 52.9489C428.05 51.6606 428.314 50.2987 429.134 48.8633C429.941 47.4509 430.971 46.5348 432.225 46.1147C433.467 45.6881 434.707 45.8287 435.946 46.5366C437.231 47.2709 437.983 48.2921 438.203 49.6003C438.423 50.9084 438.15 52.2339 437.382 53.5768ZM435.222 47.8042C434.492 47.3874 433.764 47.2782 433.036 47.4767C432.315 47.6635 431.652 48.1522 431.047 48.9427L436.325 51.9594C436.706 51.1325 436.803 50.3436 436.618 49.5928C436.44 48.8304 435.974 48.2342 435.222 47.8042ZM445.872 52.3012C446.104 52.4335 446.257 52.5286 446.331 52.5865L445.567 53.9236L445.22 53.7251C444.294 53.1958 443.438 53.0139 442.652 53.1793C441.885 53.3397 441.26 53.8424 440.777 54.6875L437.859 59.7927L436.47 58.9988L441.591 50.0387L442.91 50.7928L442.007 52.373C443.264 51.571 444.553 51.547 445.872 52.3012ZM445.124 64.2208C442.728 62.8514 442.043 61.1083 443.068 58.9915L444.475 59.7953C444.172 60.513 444.117 61.1191 444.311 61.6136C444.523 62.1031 445.022 62.5728 445.809 63.0227C447.245 63.843 448.227 63.7901 448.756 62.864C448.988 62.4588 449.013 62.066 448.831 61.6857C448.66 61.3119 448.23 60.8282 447.541 60.2344L446.797 59.6018C445.131 58.1894 444.702 56.7771 445.509 55.3648C445.952 54.5891 446.592 54.141 447.429 54.0203C448.284 53.8946 449.215 54.1196 450.223 54.6951C452.596 56.0513 453.246 57.7357 452.172 59.7483L450.783 58.9545C451.119 58.2863 451.183 57.7166 450.977 57.2453C450.77 56.7739 450.29 56.3233 449.538 55.8933C448.936 55.5493 448.407 55.4004 447.95 55.4467C447.494 55.493 447.146 55.7245 446.908 56.1413C446.683 56.5349 446.654 56.9094 446.819 57.265C446.984 57.6206 447.351 58.0531 447.92 58.5624L448.63 59.1752C449.604 60.0236 450.212 60.786 450.456 61.4624C450.71 62.1455 450.629 62.8516 450.212 63.581C449.729 64.426 449.034 64.904 448.126 65.0147C447.236 65.1206 446.236 64.8559 445.124 64.2208ZM457.837 69.7809C456.525 70.1678 455.239 70.0008 453.977 69.2797C452.715 68.5586 451.918 67.5349 451.586 66.2085C451.258 64.9003 451.501 63.5343 452.315 62.1104C453.129 60.6865 454.182 59.7836 455.475 59.4016C456.787 59.0146 458.074 59.1817 459.335 59.9028C460.597 60.6239 461.394 61.6476 461.727 62.974C462.054 64.2821 461.811 65.6482 460.997 67.0721C460.184 68.4959 459.13 69.3989 457.837 69.7809ZM453.116 65.9084C453.286 66.8196 453.812 67.5266 454.691 68.0294C455.571 68.5322 456.447 68.6257 457.318 68.3098C458.183 68.0055 458.923 67.3151 459.539 66.2385C460.161 65.1503 460.383 64.1564 460.206 63.2567C460.029 62.3571 459.501 61.6558 458.621 61.153C457.741 60.6503 456.869 60.551 456.004 60.8553C455.139 61.1596 454.395 61.8558 453.774 62.944C453.158 64.0206 452.939 65.0087 453.116 65.9084ZM469.464 65.6912C470.46 66.2601 471.08 66.9754 471.325 67.837C471.57 68.6986 471.411 69.6215 470.848 70.6055L467.385 76.6657L465.996 75.8718L469.38 69.9505C470.141 68.6192 469.838 67.5633 468.472 66.7826C467.824 66.4122 467.112 66.3278 466.336 66.5295C465.561 66.7313 464.908 67.2952 464.379 68.2213L461.481 73.2918L460.092 72.4979L465.213 63.5378L466.532 64.292L465.768 65.629C467.04 64.9891 468.272 65.0098 469.464 65.6912ZM477.443 80.9158L477.946 81.2036L477.301 82.3323C477.05 82.2347 476.785 82.1065 476.507 81.9477C475.57 81.4119 475.311 80.6958 475.731 79.7994C474.557 80.403 473.31 80.3278 471.99 79.5736C471.006 79.0113 470.359 78.3423 470.05 77.5667C469.759 76.7861 469.852 75.979 470.328 75.1455C471.254 73.5248 472.889 73.2305 475.232 74.2625L476.597 74.8579C477.594 75.2896 478.298 75.1465 478.708 74.4288C478.992 73.931 479.041 73.4829 478.854 73.0843C478.679 72.6923 478.227 72.288 477.497 71.8712C476.722 71.4279 476.084 71.2402 475.585 71.308C475.104 71.3708 474.651 71.719 474.228 72.3523L472.839 71.5585C474.086 69.6451 475.867 69.3499 478.182 70.673C480.428 71.9564 481.055 73.4664 480.062 75.2028L477.204 80.2038C477.039 80.4932 477.118 80.7306 477.443 80.9158ZM472.734 78.4325C473.475 78.8559 474.252 79.0006 475.066 78.8667C475.873 78.7443 476.512 78.2722 476.981 77.4503L477.587 76.391C477.219 76.4423 476.753 76.3447 476.187 76.0983L474.796 75.5103C473.99 75.1729 473.353 75.0389 472.883 75.1084C472.425 75.1844 472.06 75.4598 471.789 75.9344C471.525 76.3975 471.467 76.8481 471.616 77.2864C471.771 77.7131 472.144 78.0951 472.734 78.4325ZM479.829 83.7771L478.44 82.9832L485.506 70.6197L486.895 71.4135L479.829 83.7771ZM489.235 75.469L487.759 74.6255L488.731 72.9238L490.207 73.7673L489.235 75.469ZM483.306 85.7637L481.917 84.9698L487.037 76.0097L488.426 76.8036L483.306 85.7637ZM489.13 87.4798L492.725 89.5339L492.03 90.7494L484.789 86.6114L485.385 85.5696L492.499 82.6326C492.835 82.502 493.232 82.3449 493.69 82.1613C494.148 81.9778 494.417 81.8703 494.496 81.8389C493.904 81.5312 493.261 81.179 492.566 80.782L489.389 78.9661L490.083 77.7505L496.908 81.6504L496.312 82.6923L489.197 85.6292C488.862 85.7598 488.465 85.9169 488.007 86.1005C487.549 86.2841 487.28 86.3916 487.2 86.423C487.792 86.7306 488.436 87.0829 489.13 87.4798ZM503.364 91.2833L503.086 91.7695L496.279 87.8796C495.793 88.8917 495.645 89.7822 495.835 90.5512C496.032 91.3087 496.541 91.9223 497.363 92.392C498.602 93.0998 499.713 92.9973 500.695 92.0845L502.136 92.9081C501.377 93.6721 500.515 94.1318 499.551 94.2873C498.594 94.4311 497.611 94.2153 496.604 93.6397C495.366 92.9319 494.606 91.9371 494.325 90.6554C494.032 89.3671 494.296 88.0052 495.116 86.5697C495.923 85.1574 496.953 84.2412 498.207 83.8212C499.449 83.3945 500.689 83.5352 501.928 84.243C503.213 84.9773 503.965 85.9986 504.185 87.3067C504.405 88.6149 504.132 89.9404 503.364 91.2833ZM501.204 85.5106C500.474 85.0938 499.746 84.9847 499.018 85.1831C498.297 85.37 497.634 85.8586 497.029 86.6491L502.307 89.6658C502.688 88.8389 502.785 88.0501 502.6 87.2992C502.422 86.5368 501.956 85.9406 501.204 85.5106ZM513.576 92.8803L516.255 88.1919L517.644 88.9858L510.579 101.349L509.259 100.595L510.053 99.206C508.727 99.8609 507.398 99.8079 506.067 99.0471C504.805 98.326 504.042 97.3222 503.779 96.0355C503.505 94.7422 503.771 93.3894 504.578 91.9771C505.399 90.5416 506.432 89.6197 507.679 89.2112C508.903 88.7895 510.152 88.9426 511.425 89.6703C512.71 90.4046 513.427 91.4746 513.576 92.8803ZM505.997 92.8801C505.389 93.9452 505.176 94.9217 505.36 95.8098C505.543 96.6979 506.075 97.3933 506.955 97.8961C507.834 98.3989 508.71 98.4924 509.582 98.1765C510.447 97.8722 511.187 97.1818 511.802 96.1052C512.411 95.0402 512.63 94.052 512.459 93.1408C512.289 92.2295 511.764 91.5225 510.884 91.0197C510.016 90.5236 509.134 90.4417 508.237 90.7741C507.359 91.1015 506.612 91.8035 505.997 92.8801ZM517.513 105.312L516.054 104.478L523.12 92.1148L524.578 92.9483L517.513 105.312ZM529.053 99.7442C530.049 100.313 530.669 101.028 530.914 101.89C531.159 102.752 531 103.675 530.437 104.659L526.974 110.719L525.585 109.925L528.969 104.004C529.73 102.672 529.427 101.616 528.061 100.836C527.413 100.465 526.701 100.381 525.925 100.583C525.15 100.784 524.497 101.348 523.968 102.274L521.07 107.345L519.681 106.551L524.802 97.5909L526.121 98.345L525.357 99.6821C526.629 99.0421 527.861 99.0628 529.053 99.7442ZM532.1 113.924C529.704 112.555 529.018 110.812 530.044 108.695L531.45 109.499C531.148 110.217 531.093 110.823 531.286 111.317C531.498 111.807 531.997 112.276 532.785 112.726C534.22 113.547 535.203 113.494 535.732 112.568C535.963 112.162 535.988 111.77 535.806 111.389C535.636 111.015 535.206 110.532 534.516 109.938L533.772 109.305C532.107 107.893 531.678 106.481 532.485 105.068C532.928 104.293 533.568 103.845 534.405 103.724C535.26 103.598 536.191 103.823 537.198 104.399C539.571 105.755 540.221 107.439 539.148 109.452L537.759 108.658C538.094 107.99 538.159 107.42 537.952 106.949C537.745 106.477 537.266 106.027 536.513 105.597C535.911 105.253 535.382 105.104 534.926 105.15C534.469 105.197 534.122 105.428 533.884 105.845C533.659 106.238 533.629 106.613 533.794 106.969C533.96 107.324 534.327 107.757 534.896 108.266L535.605 108.879C536.579 109.727 537.188 110.49 537.431 111.166C537.686 111.849 537.605 112.555 537.188 113.284C536.705 114.13 536.01 114.607 535.102 114.718C534.212 114.824 533.211 114.559 532.1 113.924ZM544.483 107.041L543.007 106.198L543.979 104.496L545.455 105.34L544.483 107.041ZM538.554 117.336L537.164 116.542L542.285 107.582L543.674 108.376L538.554 117.336ZM551.824 114.761L552.568 113.458L553.888 114.213L548.966 122.825C548.265 124.053 547.353 124.814 546.232 125.11C545.111 125.406 543.879 125.17 542.536 124.403C541.425 123.768 540.679 123.004 540.298 122.111C539.918 121.218 539.939 120.293 540.363 119.337L541.752 120.131C541.277 121.365 541.764 122.395 543.211 123.222C545.063 124.281 546.518 123.884 547.577 122.032L548.073 121.163C546.824 121.709 545.552 121.611 544.255 120.871C542.993 120.149 542.231 119.146 541.968 117.859C541.693 116.566 541.96 115.213 542.767 113.801C543.587 112.365 544.621 111.443 545.868 111.035C547.092 110.613 548.34 110.766 549.614 111.494C550.945 112.254 551.682 113.344 551.824 114.761ZM545.143 119.72C546.023 120.222 546.899 120.316 547.77 120C548.642 119.684 549.382 118.994 549.991 117.929C550.599 116.864 550.818 115.875 550.648 114.964C550.478 114.053 549.953 113.346 549.073 112.843C548.205 112.347 547.326 112.259 546.436 112.58C545.558 112.908 544.821 113.592 544.225 114.634C543.63 115.676 543.414 116.658 543.578 117.581C543.753 118.511 544.275 119.223 545.143 119.72ZM560.221 117.556C561.217 118.125 561.837 118.84 562.082 119.702C562.327 120.563 562.168 121.486 561.606 122.47L558.142 128.53L556.753 127.736L560.137 121.815C560.898 120.484 560.595 119.428 559.229 118.647C558.581 118.277 557.869 118.192 557.093 118.394C556.318 118.596 555.665 119.16 555.136 120.086L552.238 125.156L550.849 124.362L557.915 111.999L559.304 112.793L556.654 117.429C557.886 116.859 559.075 116.901 560.221 117.556ZM568.932 122.81L568.238 124.026L566.397 122.974L563.073 128.791C562.782 129.3 562.978 129.75 563.661 130.14L564.477 130.607L563.812 131.77C563.41 131.587 563.07 131.416 562.792 131.257C561.299 130.403 560.906 129.357 561.614 128.119L565.008 122.18L563.532 121.336L564.227 120.121L565.703 120.964L567.151 118.429L568.541 119.223L567.092 121.758L568.932 122.81ZM568.237 134.575C565.84 133.206 565.155 131.463 566.18 129.346L567.587 130.15C567.284 130.867 567.23 131.473 567.423 131.968C567.635 132.457 568.134 132.927 568.921 133.377C570.357 134.197 571.339 134.144 571.868 133.218C572.1 132.813 572.125 132.42 571.943 132.04C571.773 131.666 571.343 131.183 570.653 130.589L569.909 129.956C568.243 128.544 567.814 127.131 568.621 125.719C569.065 124.944 569.705 124.495 570.541 124.375C571.397 124.249 572.328 124.474 573.335 125.049C575.708 126.406 576.358 128.09 575.284 130.103L573.895 129.309C574.231 128.641 574.296 128.071 574.089 127.6C573.882 127.128 573.402 126.678 572.65 126.248C572.048 125.904 571.519 125.755 571.062 125.801C570.606 125.847 570.259 126.079 570.02 126.496C569.796 126.889 569.766 127.264 569.931 127.619C570.097 127.975 570.464 128.407 571.033 128.917L571.742 129.53C572.716 130.378 573.325 131.14 573.568 131.817C573.822 132.5 573.741 133.206 573.325 133.935C572.842 134.78 572.146 135.258 571.238 135.369C570.349 135.475 569.348 135.21 568.237 134.575Z" fill="#E8F4F0"/>
</g>
<rect x="405.971" y="0.682196" width="244" height="55" rx="27.5" transform="rotate(29.7465 405.971 0.682196)" stroke="#042222"/>
<rect x="304.435" y="178.293" width="81" height="55" rx="27.5" transform="rotate(-47.0242 304.435 178.293)" fill="#FD989B"/>
<rect x="304.435" y="178.293" width="81" height="55" rx="27.5" transform="rotate(-47.0242 304.435 178.293)" stroke="#E3555A"/>
<path d="M361.166 169.481L359.953 170.784L355.792 169.176L351.375 173.917L353.286 177.939L352.086 179.227L345.54 165.364L346.821 163.988L361.166 169.481ZM350.596 172.289L350.672 172.442L354.271 168.579L354.085 168.515C353.263 168.204 351.067 167.343 347.499 165.931C348.707 168.351 349.739 170.47 350.596 172.289ZM363.14 167.363L361.995 168.592L351.576 158.885L352.721 157.656L363.14 167.363Z" fill="#E8F4F0"/>
<g clip-path="url(#clip3_2200_4176)">
<rect x="367" y="217.635" width="188" height="56" rx="28" transform="rotate(-12.0713 367 217.635)" fill="url(#paint0_linear_2200_4176)"/>
<path d="M414.802 235.922L413.522 229.938L415.165 229.586L418.143 243.512L416.5 243.863L415.128 237.448L407.363 239.108L408.735 245.523L407.092 245.875L404.115 231.95L405.757 231.598L407.037 237.583L414.802 235.922ZM427.394 226.971L427.712 228.457L419.674 230.176L420.623 234.616L427.879 233.064L428.197 234.551L420.941 236.102L422.016 241.129L429.976 239.427L430.294 240.913L420.691 242.967L417.713 229.041L427.394 226.971ZM443.893 238.005L442.152 238.377L439.663 234.676L433.326 236.031L432.588 240.422L430.867 240.79L433.444 225.677L435.282 225.284L443.893 238.005ZM433.621 234.25L433.595 234.419L438.759 233.315L438.643 233.155C438.147 232.43 436.84 230.466 434.724 227.265C434.328 229.94 433.96 232.268 433.621 234.25ZM443.746 223.474L446.406 235.913L453.408 234.416L453.726 235.902L445.081 237.751L442.103 223.825L443.746 223.474ZM448.404 222.478L459.572 220.09L459.89 221.576L455.157 222.588L457.817 235.027L456.115 235.391L453.455 222.952L448.722 223.964L448.404 222.478ZM471.737 223.746L470.457 217.762L472.1 217.41L475.078 231.336L473.435 231.687L472.063 225.272L464.299 226.932L465.671 233.347L464.028 233.699L461.05 219.774L462.693 219.422L463.972 225.407L471.737 223.746ZM473.577 217.094L484.745 214.706L485.063 216.193L480.33 217.205L482.99 229.644L481.288 230.007L478.628 217.569L473.895 218.581L473.577 217.094ZM495.904 212.32L496.222 213.806L488.183 215.525L489.133 219.965L496.389 218.413L496.707 219.9L489.451 221.451L490.526 226.478L498.486 224.775L498.804 226.262L489.201 228.315L486.223 214.39L495.904 212.32ZM506.365 224.972C504.474 225.376 502.788 225.048 501.307 223.988C499.826 222.927 498.849 221.289 498.375 219.072C497.901 216.856 498.122 214.961 499.04 213.387C499.958 211.814 501.363 210.825 503.253 210.421C504.753 210.1 506.118 210.238 507.35 210.833C508.579 211.416 509.53 212.453 510.204 213.945L508.541 214.301C507.486 212.236 505.831 211.444 503.575 211.927C502.154 212.231 501.122 212.983 500.479 214.184C499.839 215.398 499.711 216.905 500.096 218.704C500.48 220.504 501.212 221.82 502.29 222.653C503.371 223.499 504.622 223.77 506.043 223.466C507.112 223.237 507.993 222.701 508.685 221.858C509.37 221.043 509.667 219.978 509.576 218.661L511.219 218.309C511.407 220.083 511.032 221.547 510.093 222.702C509.146 223.886 507.903 224.643 506.365 224.972ZM521.873 213.025L520.593 207.04L522.236 206.689L525.214 220.614L523.571 220.965L522.199 214.55L514.435 216.211L515.806 222.625L514.164 222.977L511.186 209.052L512.828 208.7L514.108 214.685L521.873 213.025Z" fill="#E8F4F0"/>
</g>
<rect x="367.594" y="218.019" width="187" height="55" rx="27.5" transform="rotate(-12.0713 367.594 218.019)" stroke="#E3555A"/>
<rect x="298.942" y="275.017" width="89" height="55" rx="27.5" transform="rotate(12.0593 298.942 275.017)" fill="url(#paint1_linear_2200_4176)"/>
<rect x="298.942" y="275.017" width="89" height="55" rx="27.5" transform="rotate(12.0593 298.942 275.017)" stroke="#042222"/>
<path d="M334.691 314.742L334.347 317.021C334.246 317.817 334.288 318.447 334.476 318.909L332.774 318.546C332.576 318.067 332.559 317.416 332.721 316.592L332.98 315.093C333.142 314.145 333.075 313.436 332.78 312.964C332.489 312.479 331.913 312.145 331.052 311.961L326.514 310.991L325.244 316.937L323.601 316.586L326.576 302.66L332.463 303.918C333.898 304.224 334.968 304.801 335.673 305.647C336.392 306.496 336.623 307.52 336.366 308.719C336.185 309.567 335.823 310.24 335.281 310.737C334.754 311.225 334.114 311.51 333.359 311.595C334.455 312.21 334.899 313.26 334.691 314.742ZM326.832 309.505L331.272 310.453C332.145 310.64 332.877 310.565 333.467 310.227C334.073 309.879 334.466 309.288 334.644 308.454C334.814 307.658 334.675 307.001 334.226 306.483C333.791 305.967 333.098 305.608 332.146 305.405L327.902 304.498L326.832 309.505ZM349.88 307.639L343.729 313.36L347.179 321.623L345.262 321.214L343.832 317.759C343.614 317.249 343.162 316.143 342.475 314.442C341.977 314.922 341.106 315.745 339.862 316.911L337.106 319.471L335.268 319.078L341.819 313.013L338.516 305.211L340.433 305.621L341.741 308.784C342.312 310.133 342.74 311.192 343.026 311.962C343.561 311.436 344.399 310.64 345.54 309.575L348.042 307.246L349.88 307.639Z" fill="#E8F4F0"/>
<rect x="130.496" y="320.822" width="101" height="55" rx="27.5" transform="rotate(-44.9667 130.496 320.822)" fill="#FFE7E8"/>
<rect x="130.496" y="320.822" width="101" height="55" rx="27.5" transform="rotate(-44.9667 130.496 320.822)" stroke="#E3555A"/>
<path d="M169.915 311.497L178.904 320.496L183.97 315.436L185.044 316.512L178.79 322.759L168.727 312.684L169.915 311.497ZM177.377 304.043L186.367 313.043L191.432 307.983L192.507 309.058L186.252 315.306L176.189 305.231L177.377 304.043ZM195.432 297.119L192.127 289.311L193.683 287.756L203.747 297.831L202.586 298.99L199.364 295.764C197.244 293.641 195.548 291.915 194.276 290.585C194.671 291.434 195.137 292.495 195.674 293.768L199.247 302.326L198.228 303.343L189.66 299.775C188.388 299.236 187.327 298.769 186.479 298.373C187.808 299.646 189.532 301.344 191.652 303.467L194.875 306.693L193.714 307.852L183.651 297.777L185.207 296.222L193.266 299.621C194.473 300.131 195.821 300.716 197.31 301.377C196.359 299.274 195.733 297.855 195.432 297.119Z" fill="#E3555A"/>
<rect x="17.3303" y="64.6842" width="149" height="55" rx="27.5" transform="rotate(12.0593 17.3303 64.6842)" fill="white"/>
<rect x="17.3303" y="64.6842" width="149" height="55" rx="27.5" transform="rotate(12.0593 17.3303 64.6842)" stroke="#042222"/>
<path d="M51.9285 101.852L56.6805 94.8302L58.832 95.2899L55.8569 109.216L54.2531 108.873L55.2058 104.414C55.8325 101.48 56.3577 99.1174 56.7812 97.3264C56.2844 98.1201 55.6481 99.0885 54.8721 100.232L49.6372 107.887L48.229 107.586L46.5597 98.4558C46.3186 97.0954 46.1335 95.9515 46.0044 95.024C45.6591 96.8318 45.1731 99.2026 44.5463 102.136L43.5936 106.596L41.9898 106.253L44.9649 92.3273L47.1163 92.787L48.6512 101.398C48.8802 102.687 49.1227 104.137 49.3789 105.746C50.6256 103.803 51.4754 102.505 51.9285 101.852ZM70.063 112.251L68.3223 111.879L67.5639 107.483L61.2269 106.129L58.7581 109.835L57.037 109.468L65.5667 96.7287L67.4052 97.1214L70.063 112.251ZM62.2233 104.624L62.1312 104.768L67.2947 105.871L67.2541 105.679C67.098 104.814 66.7087 102.488 66.0862 98.7007C64.6311 100.98 63.3435 102.955 62.2233 104.624ZM82.3413 110.661L81.9977 112.939C81.8958 113.735 81.9385 114.365 82.126 114.828L80.4244 114.464C80.2267 113.986 80.209 113.334 80.3715 112.51L80.6304 111.011C80.7918 110.064 80.7253 109.354 80.4307 108.882C80.1389 108.397 79.5627 108.063 78.7022 107.879L74.1646 106.91L72.8943 112.855L71.2514 112.504L74.2264 98.5787L80.1136 99.8364C81.5479 100.143 82.6178 100.719 83.3233 101.565C84.0418 102.414 84.2729 103.438 84.0166 104.638C83.8355 105.485 83.4737 106.158 82.9311 106.656C82.4043 107.143 81.7638 107.429 81.0095 107.513C82.1051 108.129 82.549 109.178 82.3413 110.661ZM74.4821 105.423L78.9219 106.372C79.7955 106.558 80.5275 106.483 81.1177 106.145C81.7237 105.798 82.1158 105.207 82.2941 104.372C82.464 103.577 82.3249 102.92 81.8766 102.401C81.4414 101.886 80.7479 101.526 79.796 101.323L75.5518 100.416L74.4821 105.423ZM93.8345 110.805L98.5864 103.783L100.738 104.243L97.7628 118.168L96.159 117.826L97.1117 113.366C97.7385 110.433 98.2636 108.07 98.6871 106.279C98.1904 107.073 97.554 108.041 96.778 109.184L91.5432 116.84L90.1349 116.539L88.4656 107.408C88.2245 106.048 88.0394 104.904 87.9103 103.977C87.565 105.784 87.079 108.155 86.4522 111.089L85.4995 115.548L83.8957 115.206L86.8708 101.28L89.0222 101.74L90.5571 110.35C90.7861 111.64 91.0287 113.089 91.2848 114.698C92.5315 112.756 93.3814 111.458 93.8345 110.805ZM111.969 121.203L110.228 120.831L109.47 116.436L103.133 115.082L100.664 118.788L98.9429 118.42L107.473 105.681L109.311 106.074L111.969 121.203ZM104.129 113.577L104.037 113.721L109.201 114.824L109.16 114.631C109.004 113.766 108.615 111.44 107.992 107.653C106.537 109.933 105.249 111.908 104.129 113.577ZM124.247 119.613L123.904 121.892C123.802 122.688 123.844 123.318 124.032 123.78L122.33 123.417C122.133 122.938 122.115 122.287 122.277 121.463L122.536 119.964C122.698 119.017 122.631 118.307 122.337 117.835C122.045 117.35 121.469 117.016 120.608 116.832L116.07 115.862L114.8 121.808L113.157 121.457L116.132 107.531L122.02 108.789C123.454 109.096 124.524 109.672 125.229 110.518C125.948 111.367 126.179 112.391 125.923 113.591C125.741 114.438 125.38 115.111 124.837 115.608C124.31 116.096 123.67 116.381 122.915 116.466C124.011 117.082 124.455 118.131 124.247 119.613ZM116.388 114.376L120.828 115.324C121.701 115.511 122.433 115.436 123.024 115.098C123.63 114.75 124.022 114.159 124.2 113.325C124.37 112.529 124.231 111.873 123.783 111.354C123.347 110.838 122.654 110.479 121.702 110.276L117.458 109.369L116.388 114.376Z" fill="#1C1C1C"/>
<path d="M51.9285 101.852L56.6805 94.8302L58.832 95.2899L55.8569 109.216L54.2531 108.873L55.2058 104.414C55.8325 101.48 56.3577 99.1174 56.7812 97.3264C56.2844 98.1201 55.6481 99.0885 54.8721 100.232L49.6372 107.887L48.229 107.586L46.5597 98.4558C46.3186 97.0954 46.1335 95.9515 46.0044 95.024C45.6591 96.8318 45.1731 99.2026 44.5463 102.136L43.5936 106.596L41.9898 106.253L44.9649 92.3273L47.1163 92.787L48.6512 101.398C48.8802 102.687 49.1227 104.137 49.3789 105.746C50.6256 103.803 51.4754 102.505 51.9285 101.852ZM70.063 112.251L68.3223 111.879L67.5639 107.483L61.2269 106.129L58.7581 109.835L57.037 109.468L65.5667 96.7287L67.4052 97.1214L70.063 112.251ZM62.2233 104.624L62.1312 104.768L67.2947 105.871L67.2541 105.679C67.098 104.814 66.7087 102.488 66.0862 98.7007C64.6311 100.98 63.3435 102.955 62.2233 104.624ZM82.3413 110.661L81.9977 112.939C81.8958 113.735 81.9385 114.365 82.126 114.828L80.4244 114.464C80.2267 113.986 80.209 113.334 80.3715 112.51L80.6304 111.011C80.7918 110.064 80.7253 109.354 80.4307 108.882C80.1389 108.397 79.5627 108.063 78.7022 107.879L74.1646 106.91L72.8943 112.855L71.2514 112.504L74.2264 98.5787L80.1136 99.8364C81.5479 100.143 82.6178 100.719 83.3233 101.565C84.0418 102.414 84.2729 103.438 84.0166 104.638C83.8355 105.485 83.4737 106.158 82.9311 106.656C82.4043 107.143 81.7638 107.429 81.0095 107.513C82.1051 108.129 82.549 109.178 82.3413 110.661ZM74.4821 105.423L78.9219 106.372C79.7955 106.558 80.5275 106.483 81.1177 106.145C81.7237 105.798 82.1158 105.207 82.2941 104.372C82.464 103.577 82.3249 102.92 81.8766 102.401C81.4414 101.886 80.7479 101.526 79.796 101.323L75.5518 100.416L74.4821 105.423ZM93.8345 110.805L98.5864 103.783L100.738 104.243L97.7628 118.168L96.159 117.826L97.1117 113.366C97.7385 110.433 98.2636 108.07 98.6871 106.279C98.1904 107.073 97.554 108.041 96.778 109.184L91.5432 116.84L90.1349 116.539L88.4656 107.408C88.2245 106.048 88.0394 104.904 87.9103 103.977C87.565 105.784 87.079 108.155 86.4522 111.089L85.4995 115.548L83.8957 115.206L86.8708 101.28L89.0222 101.74L90.5571 110.35C90.7861 111.64 91.0287 113.089 91.2848 114.698C92.5315 112.756 93.3814 111.458 93.8345 110.805ZM111.969 121.203L110.228 120.831L109.47 116.436L103.133 115.082L100.664 118.788L98.9429 118.42L107.473 105.681L109.311 106.074L111.969 121.203ZM104.129 113.577L104.037 113.721L109.201 114.824L109.16 114.631C109.004 113.766 108.615 111.44 107.992 107.653C106.537 109.933 105.249 111.908 104.129 113.577ZM124.247 119.613L123.904 121.892C123.802 122.688 123.844 123.318 124.032 123.78L122.33 123.417C122.133 122.938 122.115 122.287 122.277 121.463L122.536 119.964C122.698 119.017 122.631 118.307 122.337 117.835C122.045 117.35 121.469 117.016 120.608 116.832L116.07 115.862L114.8 121.808L113.157 121.457L116.132 107.531L122.02 108.789C123.454 109.096 124.524 109.672 125.229 110.518C125.948 111.367 126.179 112.391 125.923 113.591C125.741 114.438 125.38 115.111 124.837 115.608C124.31 116.096 123.67 116.381 122.915 116.466C124.011 117.082 124.455 118.131 124.247 119.613ZM116.388 114.376L120.828 115.324C121.701 115.511 122.433 115.436 123.024 115.098C123.63 114.75 124.022 114.159 124.2 113.325C124.37 112.529 124.231 111.873 123.783 111.354C123.347 110.838 122.654 110.479 121.702 110.276L117.458 109.369L116.388 114.376Z" fill="black" fill-opacity="0.2"/>
<defs>
<linearGradient id="paint0_linear_2200_4176" x1="461" y1="217.635" x2="461" y2="273.635" gradientUnits="userSpaceOnUse">
<stop stop-color="#FFE7E7"/>
<stop offset="1" stop-color="#E3555A"/>
</linearGradient>
<linearGradient id="paint1_linear_2200_4176" x1="343.557" y1="240.511" x2="343.557" y2="338.046" gradientUnits="userSpaceOnUse">
<stop stop-color="#042222"/>
<stop offset="1" stop-color="#BFD8B3"/>
</linearGradient>
<clipPath id="clip0_2200_4176">
<rect x="431.235" y="267.938" width="206" height="56" rx="28" transform="rotate(15 431.235 267.938)" fill="white"/>
</clipPath>
<clipPath id="clip1_2200_4176">
<rect x="0.750488" y="218.789" width="285" height="56" rx="28" transform="rotate(-16.8103 0.750488 218.789)" fill="white"/>
</clipPath>
<clipPath id="clip2_2200_4176">
<rect x="405.785" width="245" height="56" rx="28" transform="rotate(29.7465 405.785 0)" fill="white"/>
</clipPath>
<clipPath id="clip3_2200_4176">
<rect x="367" y="217.635" width="188" height="56" rx="28" transform="rotate(-12.0713 367 217.635)" fill="white"/>
</clipPath>
</defs>
</svg>
